FontsManager.addFont({"glyphs":{"S":{"x_min":5,"x_max":1014,"ha":987,"o":"m 411 -18 q 180 4 281 -18 q 5 59 78 26 l 57 302 l 85 302 q 249 203 155 238 q 452 169 343 169 q 615 199 563 169 q 668 285 668 229 q 659 321 668 306 q 626 351 651 336 q 559 380 602 366 q 450 414 517 395 q 317 458 376 434 q 218 514 259 482 q 155 591 176 548 q 134 695 134 634 q 267 937 134 847 q 634 1028 401 1028 q 845 1009 746 1028 q 1014 960 944 991 l 964 728 l 936 728 q 797 808 883 776 q 608 841 711 841 q 453 812 508 841 q 399 732 399 783 q 407 693 399 708 q 440 662 415 677 q 508 633 462 649 q 618 600 555 617 q 860 493 787 554 q 933 328 933 432 q 893 174 933 240 q 785 66 854 108 q 620 2 712 22 q 411 -18 528 -18 "},"/":{"x_min":-26,"x_max":952,"ha":958,"o":"m 952 1055 l 188 -220 l -26 -220 l 734 1055 l 952 1055 "},"ђ":{"x_min":27,"x_max":916,"ha":990,"o":"m 483 -53 q 542 39 516 -22 q 598 211 569 100 q 612 270 604 238 q 625 323 620 301 q 642 405 629 343 q 655 497 655 467 q 632 566 655 543 q 549 590 610 590 q 482 577 520 590 q 397 539 444 564 l 272 0 l 27 0 l 221 841 l 134 841 l 165 977 l 252 977 l 270 1055 l 516 1055 l 498 977 l 718 977 l 686 841 l 466 841 l 429 677 q 566 755 503 727 q 703 783 628 783 q 857 734 799 783 q 916 587 916 686 q 903 481 916 551 q 871 333 890 412 q 849 241 859 279 q 830 164 840 203 q 750 -42 799 42 q 639 -179 700 -127 q 510 -254 576 -232 q 374 -277 444 -277 q 302 -276 337 -277 q 239 -274 267 -276 l 279 -100 l 307 -100 q 408 -91 363 -100 q 483 -53 452 -83 "},"y":{"x_min":41.34375,"x_max":972.921875,"ha":904,"o":"m 309 -279 l 41 -279 l 235 14 l 109 762 l 358 762 l 424 262 l 715 762 l 972 762 l 309 -279 "},"≈":{"x_min":136,"x_max":1127,"ha":1205,"o":"m 1127 826 q 1041 560 1114 648 q 821 473 968 473 q 695 504 757 473 q 587 574 634 535 q 506 629 548 606 q 432 653 463 653 q 351 611 377 653 q 319 483 326 569 l 136 483 q 221 743 148 658 q 441 829 295 829 q 542 808 488 829 q 675 727 596 787 q 769 665 736 682 q 830 649 802 649 q 911 694 885 649 q 944 826 937 739 l 1127 826 m 1127 398 q 1041 135 1114 220 q 821 51 968 51 q 695 82 757 51 q 587 152 634 113 q 506 207 548 184 q 432 231 463 231 q 351 185 377 231 q 319 54 326 140 l 136 54 q 221 318 148 229 q 441 407 295 407 q 542 386 488 407 q 675 305 596 365 q 769 243 736 260 q 830 227 802 227 q 911 269 885 227 q 944 398 937 311 l 1127 398 "},"‗":{"x_min":-165,"x_max":898,"ha":988,"o":"m 898 -56 l 879 -137 l -130 -137 l -111 -56 l 898 -56 m 863 -205 l 844 -286 l -165 -286 l -146 -205 l 863 -205 "},"g":{"x_min":-2,"x_max":944.65625,"ha":971,"o":"m 944 762 l 791 88 q 720 -92 766 -20 q 608 -206 674 -163 q 461 -268 540 -250 q 282 -286 381 -286 q 124 -276 200 -286 q -2 -253 49 -266 l 35 -67 l 65 -67 q 179 -101 121 -88 q 281 -114 236 -114 q 393 -102 346 -114 q 468 -68 441 -90 q 514 -9 497 -44 q 543 74 532 24 l 546 88 q 441 32 493 53 q 323 11 388 11 q 122 75 194 11 q 50 270 50 139 q 176 638 50 494 q 485 783 303 783 q 603 767 550 783 q 689 728 656 751 l 706 762 l 944 762 m 658 585 q 606 602 638 594 q 549 610 574 610 q 373 527 440 610 q 307 316 307 445 q 335 225 307 258 q 438 193 364 193 q 511 206 474 193 q 580 239 548 220 l 658 585 "},"е":{"x_min":50,"x_max":889,"ha":922,"o":"m 642 478 q 645 500 644 490 q 647 521 647 510 q 613 603 647 575 q 517 632 580 632 q 390 591 442 632 q 312 478 339 550 l 642 478 m 456 -21 q 155 65 261 -21 q 50 303 50 151 q 84 493 50 407 q 184 646 119 580 q 340 747 246 710 q 545 785 433 785 q 802 716 716 785 q 889 512 889 647 q 879 422 889 466 q 855 335 870 378 l 289 335 q 289 327 289 330 q 289 319 289 323 q 344 195 289 240 q 515 151 400 151 q 667 177 595 151 q 791 238 738 204 l 819 238 l 773 42 q 623 -5 702 10 q 456 -21 545 -21 "},"–":{"x_min":96,"x_max":924,"ha":988,"o":"m 881 358 l 96 358 l 138 540 l 924 540 l 881 358 "},"б":{"x_min":78,"x_max":990,"ha":968,"o":"m 837 659 q 898 576 876 625 q 921 459 921 527 q 885 267 921 356 q 783 113 850 178 q 627 12 718 48 q 425 -24 536 -24 q 167 63 256 -24 q 78 318 78 151 q 93 476 78 394 q 141 646 109 559 q 219 804 173 731 q 328 926 265 876 q 487 1009 396 981 q 688 1046 579 1036 q 845 1056 754 1052 q 990 1062 935 1060 l 955 885 q 869 881 907 882 q 783 876 831 879 q 553 844 614 863 q 458 790 493 825 q 414 731 433 766 q 381 645 395 695 q 508 703 443 681 q 640 725 574 725 q 749 709 699 725 q 837 659 798 693 m 667 400 q 629 506 667 465 q 523 548 592 548 q 443 540 483 548 q 353 510 403 533 q 331 407 339 465 q 324 301 324 350 q 362 183 324 224 q 462 142 400 142 q 529 158 490 142 q 595 204 567 175 q 647 288 628 240 q 667 400 667 336 "},"e":{"x_min":50,"x_max":889,"ha":922,"o":"m 642 478 q 645 500 644 490 q 647 521 647 510 q 613 603 647 575 q 517 632 580 632 q 390 591 442 632 q 312 478 339 550 l 642 478 m 456 -21 q 155 65 261 -21 q 50 303 50 151 q 84 493 50 407 q 184 646 119 580 q 340 747 246 710 q 545 785 433 785 q 802 716 716 785 q 889 512 889 647 q 879 422 889 466 q 855 335 870 378 l 289 335 q 289 327 289 330 q 289 319 289 323 q 344 195 289 240 q 515 151 400 151 q 667 177 595 151 q 791 238 738 204 l 819 238 l 773 42 q 623 -5 702 10 q 456 -21 545 -21 "},"у":{"x_min":41.34375,"x_max":972.921875,"ha":904,"o":"m 309 -279 l 41 -279 l 235 14 l 109 762 l 358 762 l 424 262 l 715 762 l 972 762 l 309 -279 "},"J":{"x_min":-58,"x_max":801,"ha":771,"o":"m 644 332 q 489 69 602 155 q 177 -16 375 -16 q 46 -10 104 -16 q -58 3 -11 -5 l -9 212 l 14 212 q 76 189 43 200 q 164 179 109 179 q 319 228 267 179 q 402 421 370 277 l 495 823 l 266 823 l 308 1010 l 801 1010 l 644 332 "},"Ј":{"x_min":-58,"x_max":801,"ha":771,"o":"m 644 332 q 489 69 602 155 q 177 -16 375 -16 q 46 -10 104 -16 q -58 3 -11 -5 l -9 212 l 14 212 q 76 189 43 200 q 164 179 109 179 q 319 228 267 179 q 402 421 370 277 l 495 823 l 266 823 l 308 1010 l 801 1010 l 644 332 "},"∆":{"x_min":-66,"x_max":1007,"ha":1119,"o":"m 1007 0 l -66 0 l 554 1010 l 854 1010 l 1007 0 m 724 194 l 648 752 l 314 194 l 724 194 "},"‾":{"x_min":156,"x_max":1198,"ha":988,"o":"m 1198 1247 l 1165 1103 l 156 1103 l 188 1247 l 1198 1247 "},"Ѓ":{"x_min":40,"x_max":1002,"ha":885,"o":"m 956 815 l 490 815 l 301 0 l 40 0 l 273 1010 l 1002 1010 l 956 815 m 997 1376 l 699 1123 l 526 1123 l 738 1390 l 997 1390 l 997 1376 "},"≥":{"x_min":160,"x_max":1069,"ha":1205,"o":"m 1069 529 l 160 236 l 160 430 l 796 620 l 160 813 l 160 1008 l 1069 714 l 1069 529 m 1069 0 l 160 0 l 160 182 l 1069 182 l 1069 0 "},"ў":{"x_min":41.34375,"x_max":972.921875,"ha":904,"o":"m 309 -279 l 41 -279 l 235 14 l 109 762 l 358 762 l 424 262 l 715 762 l 972 762 l 309 -279 m 870 1100 q 755 915 846 981 q 523 850 665 850 q 332 902 398 850 q 266 1046 266 954 q 267 1072 266 1060 q 271 1100 268 1085 l 459 1100 q 456 1073 457 1085 q 455 1050 455 1060 q 476 987 455 1008 q 545 966 497 966 q 637 1000 606 966 q 681 1100 667 1034 l 870 1100 "},"^":{"x_min":166,"x_max":1104,"ha":1205,"o":"m 1104 435 l 887 435 l 624 819 l 381 434 l 166 434 l 539 1010 l 707 1010 l 1104 435 "},"ґ":{"x_min":27,"x_max":875,"ha":738,"o":"m 410 596 l 272 0 l 27 0 l 203 762 l 609 762 l 666 1008 l 875 1008 l 779 596 l 410 596 "},"D":{"x_min":40,"x_max":1128,"ha":1153,"o":"m 1128 615 q 1037 299 1128 444 q 806 76 947 153 q 628 15 721 30 q 405 0 535 0 l 40 0 l 273 1010 l 600 1010 q 833 987 744 1010 q 975 927 921 965 q 1089 798 1050 875 q 1128 615 1128 721 m 855 592 q 829 711 855 661 q 750 792 803 761 q 700 812 726 805 q 642 823 675 819 q 571 826 611 826 q 502 826 531 826 l 493 826 l 343 185 l 367 185 q 451 185 406 185 q 524 188 496 185 q 588 199 560 191 q 652 224 617 206 q 802 374 749 274 q 855 592 855 474 "},"∙":{"x_min":109,"x_max":424,"ha":502,"o":"m 362 314 l 109 314 l 170 581 l 424 581 l 362 314 "},"к":{"x_min":27,"x_max":967,"ha":932,"o":"m 845 0 l 588 0 l 452 304 l 342 304 l 272 0 l 27 0 l 203 762 l 448 762 l 377 454 q 470 469 444 454 q 546 546 497 484 q 580 591 559 563 q 611 634 600 618 q 713 728 656 694 q 866 763 770 763 q 924 762 893 763 q 967 761 956 761 l 922 566 l 861 566 q 797 546 824 566 q 739 480 770 527 q 696 421 708 436 q 659 392 683 407 l 845 0 "},"ц":{"x_min":27,"x_max":971.734375,"ha":1013,"o":"m 654 0 l 27 0 l 203 762 l 448 762 l 310 164 l 587 164 l 726 762 l 971 762 l 833 164 l 912 164 l 830 -189 l 610 -189 l 654 0 "},"Л":{"x_min":-65,"x_max":1190.5625,"ha":1174,"o":"m 884 818 l 598 818 q 568 710 579 752 q 541 609 558 669 q 466 372 501 463 q 398 222 431 281 q 332 125 364 161 q 263 62 299 88 q 162 9 214 26 q 53 -7 110 -7 q -17 -4 19 -7 q -65 0 -54 -1 l -12 225 l -3 225 q 10 223 3 224 q 27 222 17 222 q 76 227 46 222 q 124 247 106 232 q 224 390 187 298 q 310 665 261 483 q 349 820 328 731 q 395 1010 371 908 l 1190 1010 l 957 0 l 696 0 l 884 818 "},"w":{"x_min":119,"x_max":1419,"ha":1361,"o":"m 1419 762 l 1020 0 l 762 0 l 710 513 l 454 0 l 191 0 l 119 762 l 369 762 l 391 237 l 661 762 l 878 762 l 925 235 l 1161 762 l 1419 762 "},"$":{"x_min":33,"x_max":946,"ha":988,"o":"m 468 1 l 412 -245 l 293 -245 l 349 -3 q 177 15 271 -2 q 33 59 83 32 l 79 257 l 109 257 q 232 204 156 226 q 394 176 308 182 l 438 369 q 213 454 282 406 q 144 589 144 503 q 248 810 144 730 q 561 910 353 890 l 597 1069 l 716 1069 l 678 912 q 821 894 740 909 q 946 859 901 879 l 900 664 l 870 664 q 769 710 827 691 q 638 733 710 728 l 596 554 q 824 469 753 519 q 896 327 896 418 q 783 99 896 182 q 468 1 671 15 m 531 733 q 430 704 466 728 q 394 642 394 679 q 420 598 394 615 q 493 572 447 581 l 531 733 m 638 275 q 617 323 638 305 q 547 351 597 340 l 507 178 q 602 208 567 184 q 638 275 638 231 "},"∫":{"x_min":21,"x_max":727,"ha":747,"o":"m 727 876 l 708 876 q 666 886 692 880 q 610 893 640 893 q 521 864 547 893 q 496 754 496 836 l 496 13 q 421 -208 496 -130 q 197 -286 346 -286 q 104 -282 152 -286 q 21 -272 56 -279 l 21 -100 l 39 -100 q 82 -110 54 -104 q 137 -117 109 -117 q 224 -91 197 -117 q 252 21 252 -65 l 252 762 q 326 985 252 908 q 550 1062 401 1062 q 649 1058 605 1062 q 727 1048 693 1054 l 727 876 "},"\\":{"x_min":250,"x_max":764,"ha":958,"o":"m 764 -220 l 562 -220 l 250 1055 l 453 1055 l 764 -220 "},"о":{"x_min":50,"x_max":905,"ha":952,"o":"m 905 482 q 869 281 905 375 q 768 121 833 188 q 610 13 700 51 q 401 -24 521 -24 q 140 57 231 -24 q 50 282 50 138 q 83 475 50 384 q 184 637 117 567 q 342 745 248 705 q 553 785 436 785 q 814 704 723 785 q 905 482 905 624 m 587 232 q 635 336 619 280 q 651 473 651 393 q 620 581 651 543 q 523 619 589 619 q 432 593 471 619 q 363 522 393 568 q 319 416 335 479 q 304 287 304 353 q 338 175 304 209 q 433 142 373 142 q 518 166 477 142 q 587 232 559 190 "},"Д":{"x_min":-114.453125,"x_max":1166,"ha":1169,"o":"m 978 -232 l 739 -232 l 793 3 l 180 3 l 126 -232 l -114 -232 l -16 192 l 61 192 q 259 552 164 337 q 411 1010 354 768 l 1166 1010 l 977 192 l 1077 192 l 978 -232 m 715 192 l 860 818 l 608 818 q 473 469 552 630 q 312 192 395 308 l 715 192 "},"’":{"x_min":171,"x_max":622,"ha":461,"o":"m 622 1055 l 332 656 l 171 656 l 369 1055 l 622 1055 "},"ъ":{"x_min":55,"x_max":968,"ha":1032,"o":"m 714 272 q 689 332 714 310 q 609 354 664 354 l 483 354 l 437 153 l 576 153 q 648 167 619 153 q 690 201 677 182 q 709 241 705 222 q 714 272 714 259 m 968 304 q 934 166 968 230 q 841 61 900 102 q 739 13 793 27 q 600 0 686 0 l 157 0 l 294 596 l 55 596 l 93 762 l 577 762 l 518 508 l 693 508 q 898 454 828 508 q 968 304 968 400 "},"-":{"x_min":68,"x_max":630,"ha":667,"o":"m 585 352 l 68 352 l 112 547 l 630 547 l 585 352 "},"ѕ":{"x_min":-9,"x_max":817,"ha":824,"o":"m 320 -21 q 131 -2 223 -21 q -9 40 39 15 l 37 241 l 60 241 q 98 212 75 228 q 163 179 120 196 q 246 153 199 164 q 349 142 294 142 q 472 160 431 142 q 514 215 514 179 q 484 256 514 242 q 363 291 455 270 q 150 378 207 327 q 93 505 93 429 q 208 708 93 634 q 520 783 323 783 q 691 765 605 783 q 817 728 776 748 l 772 536 l 751 536 q 634 596 702 573 q 493 620 566 620 q 373 601 415 620 q 332 544 332 582 q 368 498 332 514 q 481 465 404 482 q 689 386 625 434 q 753 253 753 339 q 636 52 753 126 q 320 -21 519 -21 "},"Q":{"x_min":80,"x_max":1158,"ha":1181,"o":"m 1158 634 q 1133 444 1158 539 q 1057 266 1109 350 q 933 121 1008 186 q 764 21 858 57 q 760 -1 761 12 q 759 -26 759 -14 q 787 -93 759 -72 q 886 -114 816 -114 q 954 -105 915 -114 q 1011 -88 993 -96 l 1037 -88 l 995 -265 q 914 -281 955 -274 q 799 -288 873 -288 q 590 -234 661 -288 q 520 -79 520 -180 q 521 -48 520 -63 q 525 -21 523 -34 q 523 -21 524 -21 q 521 -21 522 -21 q 197 85 314 -21 q 80 379 80 192 q 124 630 80 511 q 253 839 169 748 q 454 978 334 926 q 716 1031 574 1031 q 1040 923 923 1031 q 1158 634 1158 816 m 785 289 q 857 429 831 350 q 884 613 884 509 q 832 782 884 721 q 683 844 780 844 q 563 815 620 844 q 457 727 506 786 q 382 587 411 671 q 354 399 354 503 q 407 224 354 283 q 554 166 460 166 q 680 198 620 166 q 785 289 740 230 "},"Ш":{"x_min":40,"x_max":1632.984375,"ha":1616,"o":"m 1400 0 l 40 0 l 272 1010 l 533 1010 l 345 192 l 634 192 l 822 1010 l 1083 1010 l 895 192 l 1183 192 l 1372 1010 l 1632 1010 l 1400 0 "},"M":{"x_min":40,"x_max":1334.53125,"ha":1316,"o":"m 1100 0 l 839 0 l 991 660 l 715 237 l 535 237 l 446 688 l 287 0 l 40 0 l 273 1010 l 573 1010 l 683 503 l 1026 1010 l 1334 1010 l 1100 0 "},"ј":{"x_min":-190,"x_max":600,"ha":560,"o":"m 534 762 l 358 3 q 237 -207 327 -129 q 6 -286 147 -286 q -111 -280 -61 -286 q -190 -268 -162 -275 l -149 -94 l -130 -94 q -85 -106 -108 -102 q -34 -110 -62 -110 q 66 -75 29 -109 q 121 38 103 -42 l 250 596 l 105 596 l 143 762 l 534 762 m 600 1056 l 557 871 l 298 871 l 340 1056 l 600 1056 "},"C":{"x_min":80,"x_max":1069,"ha":1005,"o":"m 507 -20 q 191 80 302 -20 q 80 369 80 181 q 129 639 80 518 q 264 848 178 759 q 466 981 348 933 q 713 1030 584 1030 q 907 1008 818 1030 q 1069 945 997 987 l 1009 701 l 979 701 q 851 802 915 770 q 701 835 787 835 q 452 713 550 835 q 354 404 354 592 q 408 229 354 283 q 566 175 462 175 q 742 212 660 175 q 897 308 824 249 l 925 308 l 866 66 q 794 37 835 54 q 716 9 754 19 q 625 -12 667 -5 q 507 -20 583 -20 "},"!":{"x_min":54,"x_max":566,"ha":559,"o":"m 566 1010 l 368 291 l 148 291 l 282 1010 l 566 1010 m 327 0 l 54 0 l 95 179 l 369 179 l 327 0 "},"―":{"x_min":133,"x_max":1287,"ha":1389,"o":"m 1287 540 l 1244 358 l 133 358 l 175 540 l 1287 540 "},"Й":{"x_min":40,"x_max":1196.34375,"ha":1179,"o":"m 962 0 l 708 0 l 866 678 l 288 0 l 40 0 l 273 1010 l 529 1010 l 385 394 l 918 1010 l 1196 1010 l 962 0 m 1142 1343 q 1005 1144 1116 1215 q 723 1073 894 1073 q 490 1129 572 1073 q 409 1290 409 1186 q 410 1318 409 1305 q 414 1343 412 1330 l 641 1343 q 638 1316 639 1329 q 637 1294 637 1304 q 662 1223 637 1246 q 749 1201 687 1201 q 861 1235 824 1201 q 914 1343 899 1270 l 1142 1343 "},"{":{"x_min":88,"x_max":994,"ha":988,"o":"m 713 -266 l 532 -266 q 357 -217 422 -266 q 292 -76 292 -169 q 311 47 292 -31 q 330 174 330 127 q 285 277 330 243 q 135 311 240 311 l 88 311 l 123 478 l 170 478 q 357 527 295 478 q 443 692 419 577 l 464 792 q 579 990 492 926 q 808 1055 667 1055 l 994 1055 l 961 903 l 884 903 q 804 896 836 903 q 745 871 772 890 q 702 821 719 852 q 673 736 685 790 l 656 655 q 572 489 633 549 q 396 395 510 430 l 392 379 q 501 304 460 351 q 542 184 542 258 q 527 82 542 150 q 513 -9 513 14 q 543 -89 513 -65 q 661 -114 574 -114 l 746 -114 l 713 -266 "},"X":{"x_min":-72,"x_max":1184,"ha":1061,"o":"m 413 519 l 169 1010 l 452 1010 l 601 693 l 896 1010 l 1184 1010 l 707 506 l 956 0 l 672 0 l 520 335 l 215 0 l -72 0 l 413 519 "},"#":{"x_min":78,"x_max":1163,"ha":1205,"o":"m 1137 613 l 922 613 l 837 403 l 1028 403 l 1002 240 l 770 240 l 671 0 l 508 0 l 606 240 l 425 240 l 327 0 l 162 0 l 260 240 l 78 240 l 103 403 l 327 403 l 412 613 l 214 613 l 239 776 l 479 776 l 574 1010 l 739 1010 l 644 776 l 825 776 l 920 1010 l 1086 1010 l 990 776 l 1163 776 l 1137 613 m 760 614 l 577 614 l 489 400 l 674 400 l 760 614 "},"Б":{"x_min":40,"x_max":1060,"ha":1053,"o":"m 710 350 q 703 388 710 371 q 682 419 697 405 q 637 441 666 432 q 564 450 607 450 l 404 450 l 343 185 l 510 185 q 603 199 564 185 q 665 236 642 213 q 699 288 688 259 q 710 350 710 317 m 987 388 q 941 212 987 295 q 822 80 895 130 q 685 17 756 34 q 518 0 613 0 l 40 0 l 273 1010 l 1060 1010 l 1014 815 l 489 815 l 447 634 l 651 634 q 901 571 816 634 q 987 388 987 509 "},"г":{"x_min":27,"x_max":819,"ha":738,"o":"m 780 596 l 410 596 l 272 0 l 27 0 l 203 762 l 819 762 l 780 596 "},"Џ":{"x_min":40,"x_max":1180.453125,"ha":1163,"o":"m 373 0 l 40 0 l 273 1010 l 535 1010 l 346 192 l 728 192 l 918 1010 l 1180 1010 l 946 0 l 613 0 l 558 -239 l 317 -239 l 373 0 "},")":{"x_min":-36,"x_max":653,"ha":755,"o":"m 653 593 q 536 127 653 356 q 214 -279 420 -102 l -36 -279 l -36 -259 q 147 -90 62 -182 q 292 106 231 2 q 390 328 355 211 q 425 568 425 445 q 388 817 425 707 q 262 1035 351 927 l 262 1055 l 502 1055 q 616 837 579 943 q 653 593 653 731 "},"э":{"x_min":-11,"x_max":798,"ha":845,"o":"m 798 479 q 755 266 798 361 q 638 108 713 172 q 465 11 562 43 q 251 -21 367 -21 q 95 -1 162 -21 q -11 34 27 17 l 33 224 l 66 224 q 157 159 103 182 q 286 136 211 136 q 447 183 380 136 q 540 317 513 231 l 187 317 l 221 468 l 566 468 l 566 476 q 516 586 566 547 q 393 626 466 626 q 309 617 347 626 q 235 593 272 608 q 173 562 196 576 q 131 536 151 548 l 98 536 l 142 725 q 274 766 204 749 q 422 783 344 783 q 696 703 595 783 q 798 479 798 624 "},"х":{"x_min":-71,"x_max":996,"ha":929,"o":"m 324 386 l 110 762 l 373 762 l 494 530 l 714 762 l 996 762 l 605 380 l 823 0 l 559 0 l 436 233 l 210 0 l -71 0 l 324 386 "},"}":{"x_min":-1,"x_max":905,"ha":988,"o":"m 905 478 l 869 311 l 822 311 q 635 261 697 311 q 549 96 574 211 l 528 -3 q 412 -201 500 -137 q 184 -266 325 -266 l -1 -266 l 31 -114 l 108 -114 q 188 -107 156 -114 q 247 -82 220 -101 q 290 -32 273 -63 q 319 52 307 -1 l 336 133 q 420 298 358 239 q 596 393 482 358 l 600 409 q 491 484 532 437 q 451 604 451 530 q 465 706 451 638 q 480 798 480 774 q 449 878 480 854 q 331 903 418 903 l 247 903 l 279 1055 l 460 1055 q 635 1006 570 1055 q 701 865 701 958 q 682 741 701 820 q 663 614 663 661 q 707 511 663 545 q 857 478 752 478 l 905 478 "},"‰":{"x_min":144,"x_max":2368,"ha":2469,"o":"m 777 787 q 680 484 777 598 q 421 371 584 371 q 214 433 284 371 q 144 618 144 495 q 241 917 144 806 q 499 1029 338 1029 q 706 967 635 1029 q 777 787 777 905 m 578 773 q 555 856 578 828 q 485 885 532 885 q 383 811 424 885 q 343 627 343 738 q 365 543 343 571 q 435 515 388 515 q 539 591 500 515 q 578 773 578 668 m 1667 395 q 1570 92 1667 206 q 1311 -21 1474 -21 q 1104 41 1174 -21 q 1034 226 1034 103 q 1131 525 1034 414 q 1389 637 1228 637 q 1596 575 1525 637 q 1667 395 1667 513 m 1468 381 q 1445 464 1468 436 q 1375 493 1422 493 q 1273 419 1314 493 q 1233 235 1233 346 q 1255 151 1233 179 q 1325 123 1278 123 q 1429 199 1390 123 q 1468 381 1468 276 m 1352 1010 l 644 0 l 461 0 l 1168 1010 l 1352 1010 m 2368 395 q 2271 92 2368 206 q 2012 -21 2175 -21 q 1805 41 1875 -21 q 1735 226 1735 103 q 1832 525 1735 414 q 2090 637 1929 637 q 2297 575 2226 637 q 2368 395 2368 513 m 2169 381 q 2146 464 2169 436 q 2076 493 2123 493 q 1974 419 2015 493 q 1934 235 1934 346 q 1956 151 1934 179 q 2026 123 1979 123 q 2130 199 2091 123 q 2169 381 2169 276 "},"ш":{"x_min":27,"x_max":1366.03125,"ha":1392,"o":"m 1189 0 l 27 0 l 203 762 l 448 762 l 309 164 l 523 164 l 662 762 l 907 762 l 768 164 l 982 164 l 1121 762 l 1366 762 l 1189 0 "},"Я":{"x_min":-76,"x_max":1120.25,"ha":1104,"o":"m 887 0 l 627 0 l 713 373 l 583 373 l 231 0 l -76 0 l 328 418 q 219 512 260 453 q 179 647 179 571 q 225 820 179 741 q 355 947 272 899 q 478 995 410 980 q 631 1010 547 1010 l 1120 1010 l 887 0 m 753 550 l 816 823 l 684 823 q 592 818 625 823 q 526 793 559 814 q 474 737 494 772 q 455 662 455 703 q 461 616 455 636 q 485 581 468 597 q 541 555 509 560 q 631 550 572 550 l 753 550 "},"Ч":{"x_min":141,"x_max":1110.09375,"ha":1093,"o":"m 876 0 l 615 0 l 701 374 q 563 349 619 358 q 416 341 507 341 q 213 399 285 341 q 141 556 141 457 q 143 603 141 577 q 152 657 146 629 l 233 1010 l 496 1010 l 441 770 q 429 709 434 743 q 423 653 423 675 q 431 601 423 622 q 461 565 440 580 q 513 541 482 549 q 600 534 545 534 q 670 537 627 534 q 741 545 712 540 l 848 1010 l 1110 1010 l 876 0 "},"a":{"x_min":13,"x_max":860,"ha":928,"o":"m 572 359 q 449 346 507 353 q 352 324 392 338 q 288 282 310 309 q 267 210 267 255 q 296 155 267 171 q 380 140 325 140 q 457 156 416 140 q 535 198 499 173 l 572 359 m 507 80 q 452 44 484 65 q 391 11 419 23 q 320 -12 353 -4 q 228 -21 287 -21 q 73 32 133 -21 q 13 171 13 85 q 55 323 13 261 q 182 424 98 386 q 369 474 260 459 q 605 498 478 490 q 608 511 605 502 q 610 532 610 520 q 565 599 610 580 q 432 619 520 619 q 298 598 371 619 q 189 565 225 578 l 167 565 l 202 745 q 335 769 245 755 q 513 783 424 783 q 776 736 692 783 q 860 591 860 689 q 857 555 860 577 q 851 517 855 534 l 731 0 l 489 0 l 507 80 "},"—":{"x_min":96,"x_max":1325,"ha":1389,"o":"m 1282 358 l 96 358 l 138 540 l 1325 540 l 1282 358 "},"=":{"x_min":184,"x_max":1051,"ha":1205,"o":"m 1051 536 l 184 536 l 184 718 l 1051 718 l 1051 536 m 1051 179 l 184 179 l 184 361 l 1051 361 l 1051 179 "},"N":{"x_min":40,"x_max":1194.546875,"ha":1176,"o":"m 960 0 l 737 0 l 442 699 l 280 0 l 40 0 l 273 1010 l 565 1010 l 819 425 l 953 1010 l 1194 1010 l 960 0 "},"Ћ":{"x_min":129,"x_max":1210,"ha":1300,"o":"m 508 0 l 247 0 l 434 815 l 129 815 l 173 1010 l 1055 1010 l 1010 815 l 696 815 l 649 608 q 788 631 712 620 q 931 642 865 642 q 1135 585 1060 642 q 1210 424 1210 528 q 1207 382 1210 410 q 1197 319 1205 353 l 1124 0 l 861 0 l 910 212 q 923 276 917 242 q 929 331 929 309 q 885 424 929 398 q 752 450 841 450 q 676 445 714 450 q 609 437 638 441 l 508 0 "},"⁄":{"x_min":-231,"x_max":720,"ha":446,"o":"m 720 1016 l -47 0 l -231 0 l 536 1016 l 720 1016 "},"д":{"x_min":-106.609375,"x_max":919,"ha":960,"o":"m 778 -189 l 559 -189 l 603 3 l 156 3 l 112 -189 l -106 -189 l -26 164 l 37 164 q 180 428 111 269 q 289 762 248 588 l 919 762 l 781 164 l 860 164 l 778 -189 m 536 164 l 636 596 l 471 596 q 377 358 432 475 q 266 164 322 241 l 536 164 "},"2":{"x_min":37,"x_max":937,"ha":988,"o":"m 830 0 l 37 0 l 75 166 q 287 308 188 238 q 455 434 386 378 q 610 587 560 519 q 660 718 660 656 q 620 805 660 777 q 512 834 581 834 q 368 809 441 834 q 228 742 295 785 l 207 742 l 257 966 q 408 1008 307 987 q 599 1030 509 1030 q 850 969 763 1030 q 937 789 937 909 q 871 571 937 666 q 664 364 806 476 q 531 266 595 309 q 421 193 468 222 l 875 193 l 830 0 "},"М":{"x_min":40,"x_max":1334.53125,"ha":1316,"o":"m 1100 0 l 839 0 l 991 660 l 715 237 l 535 237 l 446 688 l 287 0 l 40 0 l 273 1010 l 573 1010 l 683 503 l 1026 1010 l 1334 1010 l 1100 0 "},"Z":{"x_min":-28,"x_max":1026,"ha":961,"o":"m 820 0 l -28 0 l 15 186 l 682 818 l 186 818 l 230 1010 l 1026 1010 l 981 821 l 316 192 l 865 192 l 820 0 "},"ь":{"x_min":27,"x_max":838,"ha":902,"o":"m 584 272 q 559 332 584 310 q 479 354 534 354 l 353 354 l 307 153 l 446 153 q 518 167 489 153 q 560 201 547 182 q 579 241 575 222 q 584 272 584 259 m 838 304 q 804 166 838 230 q 711 61 770 102 q 609 13 663 27 q 470 0 556 0 l 27 0 l 203 762 l 448 762 l 389 508 l 563 508 q 768 454 699 508 q 838 304 838 400 "},"u":{"x_min":71,"x_max":963.125,"ha":990,"o":"m 963 762 l 787 0 l 542 0 l 561 84 q 489 39 524 60 q 423 6 454 18 q 351 -15 384 -9 q 287 -21 319 -21 q 128 27 186 -21 q 71 169 71 75 q 73 217 71 195 q 82 266 76 239 l 196 762 l 443 762 l 356 384 q 340 309 346 340 q 335 256 335 278 q 357 192 335 212 q 439 172 379 172 q 508 184 469 172 q 593 222 547 197 l 717 762 l 963 762 "},"k":{"x_min":27,"x_max":994,"ha":932,"o":"m 845 0 l 588 0 l 437 336 l 328 238 l 272 0 l 27 0 l 270 1055 l 515 1055 l 370 425 l 712 762 l 994 762 l 640 430 l 845 0 "},"З":{"x_min":-15,"x_max":965,"ha":981,"o":"m 905 344 q 868 193 905 262 q 762 78 831 125 q 592 5 692 30 q 361 -20 492 -20 q 152 -1 251 -20 q -15 45 52 18 l 37 269 l 61 269 q 204 195 126 226 q 363 165 282 165 q 471 175 421 165 q 555 209 521 186 q 610 265 591 232 q 629 345 629 298 q 591 425 629 402 q 459 449 553 449 l 262 449 l 303 625 l 489 625 q 639 656 589 625 q 690 751 690 688 q 641 820 690 795 q 513 845 593 845 q 366 822 448 845 q 182 751 283 800 l 157 751 l 205 963 q 373 1007 268 985 q 589 1030 478 1030 q 866 971 768 1030 q 965 808 965 913 q 893 640 965 712 q 717 545 821 569 l 715 535 q 780 515 745 529 q 840 479 814 501 q 886 423 868 457 q 905 344 905 389 "},"Ў":{"x_min":31,"x_max":1162,"ha":1023,"o":"m 1162 1010 l 608 201 q 508 88 558 130 q 408 25 458 46 q 315 -1 359 4 q 228 -7 271 -7 q 116 -4 181 -7 q 31 0 50 -2 l 80 216 l 96 216 q 149 207 109 211 q 214 203 189 203 q 324 219 278 203 q 384 261 370 235 l 151 1010 l 418 1010 l 562 512 l 884 1010 l 1162 1010 m 1057 1343 q 920 1144 1031 1215 q 639 1073 809 1073 q 406 1129 488 1073 q 325 1290 325 1186 q 326 1318 325 1305 q 330 1343 328 1330 l 557 1343 q 554 1316 555 1329 q 553 1294 553 1304 q 578 1223 553 1246 q 664 1201 603 1201 q 776 1235 739 1201 q 829 1343 814 1270 l 1057 1343 "},"€":{"x_min":0,"x_max":1052,"ha":988,"o":"m 1052 950 l 992 706 l 962 706 q 839 804 897 774 q 694 835 780 835 q 532 786 604 835 q 415 659 459 738 l 564 659 l 531 568 l 376 568 q 362 510 368 541 q 355 449 357 479 l 487 449 l 454 358 l 356 358 q 420 218 366 262 q 560 175 474 175 q 731 209 653 175 q 881 303 808 244 l 909 303 l 849 61 q 697 3 780 27 q 500 -20 614 -20 q 195 77 307 -20 q 80 358 84 175 l 0 358 l 32 449 l 84 449 q 92 509 86 479 q 105 568 97 539 l 20 568 l 52 659 l 137 659 q 193 760 160 711 q 264 848 225 808 q 466 981 348 933 q 707 1030 583 1030 q 895 1011 811 1030 q 1052 950 980 992 "},"в":{"x_min":27,"x_max":881,"ha":941,"o":"m 857 261 q 824 144 857 199 q 739 54 792 89 q 638 11 692 23 q 507 0 585 0 l 27 0 l 203 762 l 631 762 q 744 751 696 762 q 822 721 792 740 q 866 675 851 702 q 881 613 881 647 q 839 492 881 541 q 735 416 797 444 l 735 408 q 822 356 787 395 q 857 261 857 318 m 629 547 q 605 595 629 580 q 534 611 581 611 l 411 611 l 375 457 l 509 457 q 598 480 568 457 q 629 547 629 503 m 601 255 q 576 309 601 292 q 504 327 552 327 l 345 327 l 305 152 l 474 152 q 567 178 533 152 q 601 255 601 204 "},"С":{"x_min":80,"x_max":1069,"ha":1005,"o":"m 507 -20 q 191 80 302 -20 q 80 369 80 181 q 129 639 80 518 q 264 848 178 759 q 466 981 348 933 q 713 1030 584 1030 q 907 1008 818 1030 q 1069 945 997 987 l 1009 701 l 979 701 q 851 802 915 770 q 701 835 787 835 q 452 713 550 835 q 354 404 354 592 q 408 229 354 283 q 566 175 462 175 q 742 212 660 175 q 897 308 824 249 l 925 308 l 866 66 q 794 37 835 54 q 716 9 754 19 q 625 -12 667 -5 q 507 -20 583 -20 "},"Ω":{"x_min":-53,"x_max":1151,"ha":1172,"o":"m 1151 689 q 1050 414 1151 530 q 781 238 950 297 l 772 195 l 1093 195 l 1047 0 l 562 0 l 639 334 q 813 464 753 386 q 874 657 874 543 q 818 794 874 748 q 673 841 762 841 q 554 815 606 841 q 464 747 501 790 q 410 653 430 707 q 390 541 390 599 q 422 414 390 462 q 510 330 455 365 l 433 0 l -53 0 l -7 195 l 314 195 l 325 240 q 243 290 280 263 q 180 350 207 317 q 138 428 153 384 q 123 526 123 472 q 162 720 123 628 q 276 881 201 811 q 460 990 350 949 q 703 1031 570 1031 q 1029 939 907 1031 q 1151 689 1151 848 "},"њ":{"x_min":27,"x_max":1352,"ha":1416,"o":"m 1098 272 q 1073 332 1098 310 q 993 354 1048 354 l 867 354 l 821 153 l 960 153 q 1032 167 1003 153 q 1074 201 1061 182 q 1093 241 1089 222 q 1098 272 1098 259 m 1352 304 q 1318 166 1352 230 q 1225 61 1284 102 q 1123 13 1177 27 q 984 0 1070 0 l 541 0 l 622 352 l 354 352 l 272 0 l 27 0 l 203 762 l 448 762 l 389 506 l 658 506 l 717 762 l 962 762 l 903 508 l 1077 508 q 1282 454 1213 508 q 1352 304 1352 400 "},"s":{"x_min":-9,"x_max":817,"ha":824,"o":"m 320 -21 q 131 -2 223 -21 q -9 40 39 15 l 37 241 l 60 241 q 98 212 75 228 q 163 179 120 196 q 246 153 199 164 q 349 142 294 142 q 472 160 431 142 q 514 215 514 179 q 484 256 514 242 q 363 291 455 270 q 150 378 207 327 q 93 505 93 429 q 208 708 93 634 q 520 783 323 783 q 691 765 605 783 q 817 728 776 748 l 772 536 l 751 536 q 634 596 702 573 q 493 620 566 620 q 373 601 415 620 q 332 544 332 582 q 368 498 332 514 q 481 465 404 482 q 689 386 625 434 q 753 253 753 339 q 636 52 753 126 q 320 -21 519 -21 "},"B":{"x_min":40,"x_max":1017,"ha":1058,"o":"m 1017 781 q 966 629 1017 689 q 812 538 915 569 l 810 533 q 935 464 893 509 q 978 338 978 419 q 847 89 978 179 q 477 0 716 0 l 40 0 l 273 1010 l 642 1010 q 920 949 824 1010 q 1017 781 1017 889 m 742 740 q 706 804 742 784 q 608 825 671 825 l 491 825 l 441 611 l 560 611 q 694 643 646 611 q 742 740 742 676 m 713 331 q 670 412 713 387 q 538 437 628 437 l 401 437 l 343 185 l 475 185 q 651 222 589 185 q 713 331 713 259 "},"…":{"x_min":37,"x_max":1307,"ha":1457,"o":"m 1246 0 l 1009 0 l 1069 267 l 1307 267 l 1246 0 m 760 0 l 523 0 l 583 267 l 821 267 l 760 0 m 274 0 l 37 0 l 97 267 l 335 267 l 274 0 "},"В":{"x_min":40,"x_max":1017,"ha":1058,"o":"m 1017 781 q 966 629 1017 689 q 812 538 915 569 l 810 533 q 935 464 893 509 q 978 338 978 419 q 847 89 978 179 q 477 0 716 0 l 40 0 l 273 1010 l 642 1010 q 920 949 824 1010 q 1017 781 1017 889 m 742 740 q 706 804 742 784 q 608 825 671 825 l 491 825 l 441 611 l 560 611 q 694 643 646 611 q 742 740 742 676 m 713 331 q 670 412 713 387 q 538 437 628 437 l 401 437 l 343 185 l 475 185 q 651 222 589 185 q 713 331 713 259 "},"І":{"x_min":-5.1875,"x_max":819.609375,"ha":758,"o":"m 586 0 l -5 0 l 36 179 l 201 179 l 351 831 l 186 831 l 228 1010 l 819 1010 l 778 831 l 613 831 l 462 179 l 627 179 l 586 0 "},"?":{"x_min":157,"x_max":876,"ha":857,"o":"m 876 787 q 787 576 876 670 q 508 412 698 482 l 475 271 l 236 271 l 290 506 q 520 603 442 544 q 598 737 598 662 q 561 817 598 791 q 455 844 524 844 q 340 823 401 844 q 215 766 278 802 l 188 766 l 236 972 q 370 1013 291 995 q 542 1031 449 1031 q 788 967 701 1031 q 876 787 876 903 m 472 179 l 430 0 l 157 0 l 198 179 l 472 179 "},"H":{"x_min":40,"x_max":1180.578125,"ha":1163,"o":"m 1180 1010 l 946 0 l 685 0 l 788 446 l 405 446 l 301 0 l 40 0 l 273 1010 l 535 1010 l 449 638 l 832 638 l 918 1010 l 1180 1010 "},"c":{"x_min":50,"x_max":850,"ha":817,"o":"m 420 -21 q 274 -1 342 -21 q 155 58 206 17 q 77 158 105 98 q 50 298 50 219 q 89 489 50 401 q 198 643 128 577 q 367 745 267 707 q 583 783 467 783 q 722 767 653 783 q 850 722 790 751 l 798 514 l 763 514 q 673 585 723 562 q 559 609 622 609 q 373 526 443 609 q 304 322 304 444 q 347 195 304 237 q 481 153 390 153 q 609 181 551 153 q 709 246 667 210 l 744 246 l 692 37 q 563 -7 619 6 q 420 -21 508 -21 "},"−":{"x_min":189,"x_max":1073,"ha":1205,"o":"m 1073 358 l 189 358 l 189 540 l 1073 540 l 1073 358 "},"≠":{"x_min":199,"x_max":1065,"ha":1205,"o":"m 1065 183 l 612 183 l 510 -59 l 327 -59 l 428 183 l 199 183 l 199 365 l 504 365 l 576 533 l 199 533 l 199 715 l 650 715 l 743 936 l 929 936 l 836 715 l 1065 715 l 1065 533 l 759 533 l 686 365 l 1065 365 l 1065 183 "},"‼":{"x_min":54,"x_max":984,"ha":977,"o":"m 566 1010 l 368 291 l 148 291 l 282 1010 l 566 1010 m 327 0 l 54 0 l 95 179 l 369 179 l 327 0 m 984 1010 l 786 291 l 566 291 l 700 1010 l 984 1010 m 745 0 l 472 0 l 513 179 l 787 179 l 745 0 "},"•":{"x_min":163,"x_max":851,"ha":988,"o":"m 851 463 q 750 220 851 320 q 507 120 649 120 q 263 220 364 120 q 163 463 163 320 q 263 705 163 605 q 507 806 364 806 q 750 705 649 806 q 851 463 851 605 "},"н":{"x_min":27,"x_max":973.90625,"ha":1000,"o":"m 797 0 l 552 0 l 628 330 l 349 330 l 272 0 l 27 0 l 203 762 l 448 762 l 387 495 l 666 495 l 728 762 l 973 762 l 797 0 "},"(":{"x_min":103,"x_max":792,"ha":755,"o":"m 792 1035 q 608 866 693 958 q 463 669 524 773 q 365 447 400 564 q 331 207 331 330 q 367 -41 331 68 q 494 -259 404 -151 l 494 -279 l 253 -279 q 140 -61 177 -167 q 103 182 103 44 q 219 648 103 419 q 541 1055 335 878 l 792 1055 l 792 1035 "},"U":{"x_min":100,"x_max":1159.859375,"ha":1128,"o":"m 1159 1010 l 1013 378 q 845 74 963 169 q 504 -20 727 -20 q 202 51 304 -20 q 100 268 100 123 q 104 328 100 298 q 114 384 109 359 l 260 1010 l 523 1010 l 378 383 q 370 342 373 364 q 367 304 367 319 q 405 207 367 240 q 532 175 443 175 q 671 222 618 175 q 748 370 724 269 l 896 1010 l 1159 1010 "},"F":{"x_min":40,"x_max":997,"ha":903,"o":"m 997 1010 l 951 815 l 489 815 l 445 627 l 874 627 l 829 432 l 400 432 l 300 0 l 40 0 l 273 1010 l 997 1010 "},"м":{"x_min":27,"x_max":1126.328125,"ha":1153,"o":"m 950 0 l 712 0 l 819 464 l 574 161 l 467 161 l 370 489 l 257 0 l 27 0 l 203 762 l 468 762 l 576 407 l 859 762 l 1126 762 l 950 0 "},"з":{"x_min":-28,"x_max":778,"ha":817,"o":"m 591 35 q 455 -7 532 6 q 296 -21 379 -21 q 114 -2 195 -21 q -28 37 33 15 l 14 219 l 41 219 q 152 165 89 189 q 284 142 215 142 q 351 147 311 142 q 413 162 390 152 q 458 194 441 175 q 475 248 475 213 q 464 283 475 270 q 432 304 453 297 q 379 313 411 311 q 315 316 346 316 l 193 316 l 226 466 l 323 466 q 393 467 354 466 q 458 476 433 469 q 506 500 488 484 q 524 549 524 516 q 511 581 524 568 q 477 603 498 595 q 430 615 456 611 q 379 619 404 619 q 260 600 327 619 q 136 554 194 581 l 110 554 l 151 736 q 282 765 194 748 q 452 783 370 783 q 574 772 519 783 q 677 738 629 762 q 750 680 723 715 q 778 595 778 645 q 724 466 778 521 q 600 391 671 410 l 599 385 q 690 333 652 369 q 729 239 729 296 q 691 115 729 165 q 591 35 653 64 "},":":{"x_min":65,"x_max":494,"ha":559,"o":"m 433 495 l 179 495 l 239 762 l 494 762 l 433 495 m 319 0 l 65 0 l 125 267 l 380 267 l 319 0 "},"Ґ":{"x_min":40,"x_max":1066,"ha":885,"o":"m 490 815 l 301 0 l 40 0 l 273 1010 l 770 1010 l 834 1288 l 1066 1288 l 955 815 l 490 815 "},"і":{"x_min":27,"x_max":523,"ha":475,"o":"m 448 762 l 272 0 l 27 0 l 203 762 l 448 762 m 523 1056 l 480 871 l 221 871 l 263 1056 l 523 1056 "},"*":{"x_min":207,"x_max":917,"ha":988,"o":"m 917 566 l 841 455 l 624 602 l 632 362 l 488 362 l 493 596 l 280 454 l 207 566 l 447 708 l 207 851 l 280 965 l 492 820 l 488 1055 l 631 1055 l 625 819 l 841 963 l 916 850 l 673 709 l 917 566 "},"†":{"x_min":216,"x_max":911,"ha":988,"o":"m 875 636 l 629 639 l 505 92 l 333 92 l 462 639 l 216 636 l 251 792 l 498 788 l 555 1055 l 727 1055 l 663 788 l 911 792 l 875 636 "},"Ќ":{"x_min":40,"x_max":1157,"ha":1071,"o":"m 994 0 l 707 0 l 480 409 l 396 409 l 301 0 l 40 0 l 272 1010 l 534 1010 l 439 596 q 535 620 500 598 q 641 731 569 642 q 683 785 659 753 q 729 844 708 817 q 809 930 770 895 q 883 982 848 964 q 958 1005 919 999 q 1055 1012 997 1012 q 1117 1010 1089 1012 q 1157 1009 1144 1009 l 1107 795 l 1039 795 q 989 788 1007 795 q 947 764 971 782 q 908 727 927 749 q 856 661 889 705 q 766 560 802 590 q 699 516 730 530 l 994 0 m 1035 1376 l 737 1123 l 564 1123 l 776 1390 l 1035 1390 l 1035 1376 "},"∕":{"x_min":-231,"x_max":720,"ha":446,"o":"m 720 1016 l -47 0 l -231 0 l 536 1016 l 720 1016 "},"₫":{"x_min":27,"x_max":1079,"ha":971,"o":"m 962 841 l 768 0 l 523 0 l 541 79 q 479 39 506 56 q 420 6 452 21 q 360 -14 389 -7 q 289 -21 330 -21 q 113 50 179 -21 q 47 255 47 122 q 81 459 47 363 q 177 627 116 554 q 318 740 237 698 q 488 783 399 783 q 596 770 550 783 q 691 731 642 757 l 716 841 l 494 841 l 525 977 l 747 977 l 766 1055 l 1012 1055 l 993 977 l 1079 977 l 1047 841 l 962 841 m 657 583 q 606 601 638 593 q 550 609 574 609 q 445 583 491 609 q 365 512 398 557 q 319 410 336 472 q 303 290 303 348 q 334 191 303 222 q 431 160 366 160 q 501 174 464 160 q 571 210 538 189 l 657 583 m 27 -286 l 58 -150 l 723 -150 l 691 -286 l 27 -286 "},"V":{"x_min":161,"x_max":1190,"ha":1061,"o":"m 1190 1010 l 587 0 l 296 0 l 161 1010 l 427 1010 l 508 286 l 911 1010 l 1190 1010 "},"У":{"x_min":31,"x_max":1162,"ha":1023,"o":"m 1162 1010 l 608 201 q 508 88 558 130 q 408 25 458 46 q 315 -1 359 4 q 228 -7 271 -7 q 116 -4 181 -7 q 31 0 50 -2 l 80 216 l 96 216 q 149 207 109 211 q 214 203 189 203 q 324 219 278 203 q 384 261 370 235 l 151 1010 l 418 1010 l 562 512 l 884 1010 l 1162 1010 "},"0":{"x_min":78,"x_max":959,"ha":988,"o":"m 959 699 q 926 426 959 559 q 830 196 893 293 q 662 33 758 87 q 443 -21 566 -21 q 172 59 266 -21 q 78 310 78 139 q 109 584 78 455 q 206 813 141 712 q 369 972 270 914 q 595 1031 468 1031 q 867 947 776 1031 q 959 699 959 864 m 697 689 q 668 806 697 768 q 582 844 639 844 q 481 795 528 844 q 400 658 434 747 q 355 488 370 580 q 340 320 340 396 q 368 203 340 241 q 458 166 397 166 q 561 218 516 166 q 636 351 606 270 q 681 517 665 426 q 697 689 697 607 "},"”":{"x_min":157,"x_max":977,"ha":816,"o":"m 977 1055 l 687 656 l 526 656 l 724 1055 l 977 1055 m 608 1055 l 318 656 l 157 656 l 355 1055 l 608 1055 "},"@":{"x_min":106,"x_max":1264,"ha":1339,"o":"m 1112 94 l 754 94 l 754 146 q 678 105 712 119 q 585 91 643 91 q 431 157 489 91 q 373 342 373 224 q 473 647 373 520 q 713 774 573 774 q 794 760 757 774 q 854 722 830 746 l 863 765 l 1020 765 l 912 210 l 1035 210 q 1102 370 1080 285 q 1124 542 1124 455 q 1030 809 1124 712 q 759 907 936 907 q 570 865 662 907 q 406 747 478 823 q 292 571 334 673 q 250 353 250 469 q 279 185 250 257 q 357 66 308 113 q 475 -7 408 17 q 622 -32 543 -32 q 759 -20 680 -32 q 890 6 837 -8 l 871 -125 q 742 -147 805 -140 q 604 -155 678 -155 q 244 -21 382 -155 q 106 338 106 111 q 157 599 106 475 q 298 820 208 724 q 511 972 387 915 q 775 1030 635 1030 q 1131 894 998 1030 q 1264 546 1264 759 q 1220 301 1264 425 q 1112 94 1176 177 m 765 275 l 830 613 q 783 635 809 627 q 722 644 756 644 q 595 560 647 644 q 543 356 543 477 q 567 252 543 284 q 645 221 592 221 q 705 235 676 221 q 765 275 735 249 "},"℅":{"x_min":142,"x_max":1667,"ha":1767,"o":"m 637 420 q 541 385 593 399 q 429 372 489 372 q 218 437 295 372 q 142 623 142 503 q 174 795 142 718 q 262 924 207 872 q 392 1003 317 976 q 549 1030 466 1030 q 655 1017 603 1030 q 753 979 707 1004 l 714 812 l 683 812 q 614 870 649 851 q 534 889 580 889 q 452 867 488 889 q 391 810 416 846 q 357 734 370 778 q 345 643 345 689 q 379 547 345 581 q 469 513 413 513 q 571 537 526 513 q 643 589 616 561 l 675 589 l 637 420 m 1667 395 q 1570 92 1667 206 q 1311 -21 1474 -21 q 1104 41 1174 -21 q 1034 226 1034 103 q 1131 525 1034 414 q 1389 637 1228 637 q 1596 575 1525 637 q 1667 395 1667 513 m 1468 381 q 1445 464 1468 436 q 1375 493 1422 493 q 1273 419 1314 493 q 1233 235 1233 346 q 1255 151 1233 179 q 1325 123 1278 123 q 1429 199 1390 123 q 1468 381 1468 276 m 1345 1010 l 637 0 l 454 0 l 1161 1010 l 1345 1010 "},"i":{"x_min":27,"x_max":523,"ha":475,"o":"m 448 762 l 272 0 l 27 0 l 203 762 l 448 762 m 523 1056 l 480 871 l 221 871 l 263 1056 l 523 1056 "},"ќ":{"x_min":27,"x_max":967,"ha":932,"o":"m 845 0 l 588 0 l 452 304 l 342 304 l 272 0 l 27 0 l 203 762 l 448 762 l 377 454 q 470 469 444 454 q 546 546 497 484 q 580 591 559 563 q 611 634 600 618 q 713 728 656 694 q 866 763 770 763 q 924 762 893 763 q 967 761 956 761 l 922 566 l 861 566 q 797 546 824 566 q 739 480 770 527 q 696 421 708 436 q 659 392 683 407 l 845 0 m 895 1123 l 597 870 l 424 870 l 636 1137 l 895 1137 l 895 1123 "},"≤":{"x_min":160,"x_max":1069,"ha":1205,"o":"m 1069 236 l 160 529 l 160 714 l 1069 1008 l 1069 813 l 432 620 l 1069 430 l 1069 236 m 1069 0 l 160 0 l 160 182 l 1069 182 l 1069 0 "},"ё":{"x_min":50,"x_max":889,"ha":922,"o":"m 642 478 q 645 500 644 490 q 647 521 647 510 q 613 603 647 575 q 517 632 580 632 q 390 591 442 632 q 312 478 339 550 l 642 478 m 456 -21 q 155 65 261 -21 q 50 303 50 151 q 84 493 50 407 q 184 646 119 580 q 340 747 246 710 q 545 785 433 785 q 802 716 716 785 q 889 512 889 647 q 879 422 889 466 q 855 335 870 378 l 289 335 q 289 327 289 330 q 289 319 289 323 q 344 195 289 240 q 515 151 400 151 q 667 177 595 151 q 791 238 738 204 l 819 238 l 773 42 q 623 -5 702 10 q 456 -21 545 -21 m 867 1055 l 824 870 l 623 870 l 665 1055 l 867 1055 m 503 1055 l 460 870 l 259 870 l 301 1055 l 503 1055 "},"№":{"x_min":40,"x_max":1794,"ha":1797,"o":"m 857 0 l 619 0 l 427 690 l 268 0 l 40 0 l 272 1010 l 576 1010 l 730 444 l 861 1010 l 1089 1010 l 857 0 m 1567 122 l 1093 122 l 1124 260 l 1599 260 l 1567 122 m 1794 788 q 1765 627 1794 703 q 1687 499 1737 551 q 1563 413 1635 444 q 1401 383 1492 383 q 1195 449 1264 383 q 1127 628 1127 516 q 1155 787 1127 715 q 1231 912 1183 859 q 1354 999 1281 967 q 1519 1031 1428 1031 q 1723 966 1652 1031 q 1794 788 1794 902 m 1595 781 q 1568 871 1595 845 q 1495 898 1541 898 q 1372 820 1419 898 q 1326 632 1326 743 q 1352 542 1326 569 q 1426 516 1379 516 q 1545 589 1496 516 q 1595 781 1595 662 "},"]":{"x_min":-15,"x_max":743,"ha":755,"o":"m 437 -266 l -15 -266 l 22 -103 l 262 -103 l 492 892 l 252 892 l 289 1055 l 743 1055 l 437 -266 "},"А":{"x_min":-63,"x_max":984,"ha":1078,"o":"m 984 0 l 721 0 l 698 206 l 327 206 l 209 0 l -63 0 l 542 1010 l 844 1010 l 984 0 m 678 387 l 638 748 l 430 387 l 678 387 "},"m":{"x_min":27,"x_max":1400,"ha":1470,"o":"m 1400 592 q 1396 546 1400 571 q 1387 495 1393 522 l 1273 0 l 1026 0 l 1114 380 q 1130 455 1123 419 q 1137 514 1137 491 q 1115 571 1137 553 q 1038 590 1094 590 q 978 577 1012 590 q 897 539 945 564 l 772 0 l 526 0 l 614 380 q 629 452 622 413 q 637 511 637 490 q 616 571 637 552 q 539 590 595 590 q 475 576 510 590 q 397 539 440 562 l 272 0 l 27 0 l 203 762 l 448 762 l 429 677 q 563 755 503 727 q 693 783 623 783 q 820 749 768 783 q 892 650 871 715 q 1054 749 982 716 q 1193 783 1126 783 q 1347 733 1294 783 q 1400 592 1400 683 "},"′":{"x_min":120,"x_max":622,"ha":490,"o":"m 622 1010 l 282 577 l 120 577 l 372 1010 l 622 1010 "},"Ы":{"x_min":40,"x_max":1493.5625,"ha":1476,"o":"m 710 350 q 703 388 710 371 q 682 419 697 405 q 637 441 666 432 q 564 450 607 450 l 405 450 l 343 185 l 510 185 q 603 199 564 185 q 665 236 642 213 q 699 288 688 259 q 710 350 710 317 m 987 388 q 941 212 987 295 q 822 80 895 130 q 685 17 756 34 q 518 0 613 0 l 40 0 l 273 1010 l 534 1010 l 447 634 l 651 634 q 901 571 816 634 q 987 388 987 509 m 1259 0 l 998 0 l 1231 1010 l 1493 1010 l 1259 0 "},"Е":{"x_min":40,"x_max":1005,"ha":949,"o":"m 1005 1010 l 960 818 l 489 818 l 447 638 l 885 638 l 840 446 l 402 446 l 344 192 l 815 192 l 771 0 l 40 0 l 273 1010 l 1005 1010 "},"8":{"x_min":43,"x_max":979,"ha":988,"o":"m 979 803 q 919 652 979 719 q 746 544 859 584 l 745 539 q 866 453 823 503 q 910 325 910 402 q 777 72 910 168 q 443 -23 645 -23 q 150 45 258 -23 q 43 230 43 113 q 105 405 43 333 q 295 520 167 477 l 296 524 q 197 607 230 563 q 165 714 165 650 q 192 835 165 779 q 275 936 219 891 q 411 1006 329 980 q 598 1033 492 1033 q 877 970 776 1033 q 979 803 979 908 m 717 762 q 679 835 717 809 q 583 861 641 861 q 471 828 513 861 q 429 746 429 795 q 446 695 429 715 q 504 656 464 675 q 554 634 523 646 q 626 605 585 621 q 690 679 664 640 q 717 762 717 718 m 646 287 q 627 347 646 322 q 546 403 608 372 q 486 430 526 413 q 418 459 446 447 q 335 372 362 417 q 308 278 308 327 q 353 183 308 217 q 472 150 399 150 q 593 188 540 150 q 646 287 646 227 "},"Э":{"x_min":-3,"x_max":1007,"ha":1030,"o":"m 1007 638 q 955 363 1007 486 q 814 155 903 239 q 606 25 724 70 q 356 -20 489 -20 q 155 4 247 -20 q -3 57 62 28 l 49 282 l 74 282 q 193 196 117 231 q 362 161 270 161 q 462 175 405 161 q 563 219 518 190 q 653 303 612 251 q 717 433 694 355 l 261 433 l 303 621 l 747 621 l 747 630 q 726 729 747 687 q 673 797 706 771 q 598 836 640 823 q 510 849 556 849 q 337 814 426 849 q 168 721 248 780 l 140 721 l 192 951 q 361 1006 266 983 q 567 1030 455 1030 q 888 924 770 1030 q 1007 638 1007 818 "},"R":{"x_min":40,"x_max":1055,"ha":1087,"o":"m 1055 755 q 981 551 1055 634 q 780 426 907 468 l 1014 0 l 723 0 l 532 370 l 386 370 l 300 0 l 40 0 l 273 1010 l 667 1010 q 953 947 852 1010 q 1055 755 1055 884 m 774 711 q 734 797 774 772 q 619 823 695 823 l 490 823 l 428 552 l 556 552 q 717 594 660 552 q 774 711 774 636 "},"ю":{"x_min":27,"x_max":1334,"ha":1381,"o":"m 1082 473 q 1051 582 1082 545 q 952 619 1020 619 q 862 593 901 619 q 792 522 823 568 q 748 416 764 479 q 733 287 733 353 q 767 175 733 209 q 863 142 802 142 q 949 166 908 142 q 1018 232 990 190 q 1066 336 1050 280 q 1082 473 1082 393 m 1334 482 q 1298 282 1334 376 q 1199 121 1262 188 q 1043 14 1133 52 q 838 -24 953 -24 q 582 56 673 -24 q 492 283 492 136 q 492 308 492 297 q 494 329 493 319 l 348 329 l 272 0 l 27 0 l 203 762 l 448 762 l 386 494 l 532 494 q 602 612 559 559 q 702 703 646 666 q 832 763 759 742 q 987 785 905 785 q 1244 704 1155 785 q 1334 482 1334 623 "},"o":{"x_min":50,"x_max":905,"ha":952,"o":"m 905 482 q 869 281 905 375 q 768 121 833 188 q 610 13 700 51 q 401 -24 521 -24 q 140 57 231 -24 q 50 282 50 138 q 83 475 50 384 q 184 637 117 567 q 342 745 248 705 q 553 785 436 785 q 814 704 723 785 q 905 482 905 624 m 587 232 q 635 336 619 280 q 651 473 651 393 q 620 581 651 543 q 523 619 589 619 q 432 593 471 619 q 363 522 393 568 q 319 416 335 479 q 304 287 304 353 q 338 175 304 209 q 433 142 373 142 q 518 166 477 142 q 587 232 559 190 "},"5":{"x_min":33,"x_max":1013,"ha":988,"o":"m 746 76 q 586 3 678 27 q 390 -21 494 -21 q 175 -3 264 -21 q 33 40 86 14 l 84 263 l 113 263 q 243 199 178 220 q 381 178 308 178 q 558 218 491 178 q 625 344 625 259 q 569 441 625 409 q 400 474 514 474 q 294 464 350 474 q 192 441 238 454 l 163 441 l 295 1010 l 1013 1010 l 968 817 l 495 817 l 457 652 q 481 653 466 653 q 517 653 496 653 q 662 638 594 653 q 782 592 730 624 q 866 509 835 560 q 898 382 898 458 q 856 201 898 278 q 746 76 815 124 "},"Ѕ":{"x_min":5,"x_max":1014,"ha":987,"o":"m 411 -18 q 180 4 281 -18 q 5 59 78 26 l 57 302 l 85 302 q 249 203 155 238 q 452 169 343 169 q 615 199 563 169 q 668 285 668 229 q 659 321 668 306 q 626 351 651 336 q 559 380 602 366 q 450 414 517 395 q 317 458 376 434 q 218 514 259 482 q 155 591 176 548 q 134 695 134 634 q 267 937 134 847 q 634 1028 401 1028 q 845 1009 746 1028 q 1014 960 944 991 l 964 728 l 936 728 q 797 808 883 776 q 608 841 711 841 q 453 812 508 841 q 399 732 399 783 q 407 693 399 708 q 440 662 415 677 q 508 633 462 649 q 618 600 555 617 q 860 493 787 554 q 933 328 933 432 q 893 174 933 240 q 785 66 854 108 q 620 2 712 22 q 411 -18 528 -18 "},"п":{"x_min":27,"x_max":973,"ha":1000,"o":"m 797 0 l 552 0 l 689 596 l 410 596 l 272 0 l 27 0 l 203 762 l 973 762 l 797 0 "},"7":{"x_min":62,"x_max":1043,"ha":988,"o":"m 998 815 l 357 0 l 62 0 l 725 823 l 208 823 l 251 1010 l 1043 1010 l 998 815 "},"K":{"x_min":40,"x_max":1197,"ha":1071,"o":"m 994 0 l 707 0 l 480 409 l 374 317 l 301 0 l 40 0 l 272 1010 l 534 1010 l 432 565 l 887 1010 l 1197 1010 l 687 539 l 994 0 "},",":{"x_min":-120,"x_max":396,"ha":502,"o":"m 396 267 l 31 -250 l -120 -250 l 131 267 l 396 267 "},"d":{"x_min":47,"x_max":1012.296875,"ha":971,"o":"m 1012 1055 l 768 0 l 523 0 l 541 79 q 479 39 506 56 q 420 6 452 21 q 360 -14 389 -7 q 289 -21 330 -21 q 113 50 179 -21 q 47 255 47 122 q 81 459 47 363 q 177 627 116 554 q 318 740 237 698 q 488 783 399 783 q 596 770 550 783 q 691 731 642 757 l 766 1055 l 1012 1055 m 657 583 q 606 601 638 593 q 550 609 574 609 q 445 583 491 609 q 365 512 398 557 q 319 410 336 472 q 303 290 303 348 q 334 191 303 222 q 431 160 366 160 q 501 174 464 160 q 571 210 538 189 l 657 583 "},"E":{"x_min":40,"x_max":1005,"ha":949,"o":"m 1005 1010 l 960 818 l 489 818 l 447 638 l 885 638 l 840 446 l 402 446 l 344 192 l 815 192 l 771 0 l 40 0 l 273 1010 l 1005 1010 "},"Y":{"x_min":152,"x_max":1163,"ha":1023,"o":"m 1163 1010 l 648 390 l 557 0 l 296 0 l 383 378 l 152 1010 l 431 1010 l 560 614 l 861 1010 l 1163 1010 "},"\"":{"x_min":206,"x_max":847,"ha":816,"o":"m 847 1055 l 714 656 l 561 656 l 612 1055 l 847 1055 m 492 1055 l 359 656 l 206 656 l 257 1055 l 492 1055 "},"‹":{"x_min":152,"x_max":653,"ha":755,"o":"m 487 87 l 152 401 l 173 492 l 653 806 l 602 584 l 362 432 l 533 281 l 487 87 "},"Є":{"x_min":80,"x_max":1082,"ha":1030,"o":"m 337 433 q 335 410 335 420 q 335 392 335 399 q 400 221 335 282 q 582 161 466 161 q 753 192 670 161 q 924 287 837 224 l 951 287 l 899 58 q 698 -4 785 11 q 526 -20 612 -20 q 197 84 314 -20 q 80 375 80 189 q 127 636 80 516 q 261 846 174 756 q 464 980 345 931 q 719 1030 584 1030 q 932 1005 839 1030 q 1082 952 1025 981 l 1028 725 l 1000 725 q 856 821 925 794 q 712 849 786 849 q 517 789 608 849 q 383 621 425 729 l 830 621 l 787 433 l 337 433 "},"″":{"x_min":120,"x_max":987,"ha":856,"o":"m 987 1010 l 648 577 l 486 577 l 737 1010 l 987 1010 m 621 1010 l 282 577 l 120 577 l 371 1010 l 621 1010 "},"„":{"x_min":-87,"x_max":733,"ha":816,"o":"m 733 267 l 443 -132 l 282 -132 l 480 267 l 733 267 m 364 267 l 74 -132 l -87 -132 l 111 267 l 364 267 "},"ч":{"x_min":92,"x_max":922.375,"ha":950,"o":"m 747 0 l 502 0 l 562 262 q 428 240 495 248 q 317 232 360 232 q 153 275 215 232 q 92 403 92 319 q 95 449 92 426 q 102 488 99 473 l 164 762 l 411 762 l 371 586 q 361 536 365 561 q 357 493 357 511 q 387 424 357 447 q 504 401 417 401 q 549 402 521 401 q 595 407 577 404 l 676 762 l 922 762 l 747 0 "},"|":{"x_min":294,"x_max":491,"ha":755,"o":"m 491 -266 l 294 -266 l 294 1055 l 491 1055 l 491 -266 "},"џ":{"x_min":27,"x_max":973.703125,"ha":1000,"o":"m 303 0 l 27 0 l 203 762 l 448 762 l 310 164 l 589 164 l 728 762 l 973 762 l 797 0 l 521 0 l 477 -190 l 259 -190 l 303 0 "},"љ":{"x_min":-63,"x_max":1342,"ha":1406,"o":"m 1088 272 q 1063 332 1088 310 q 983 354 1038 354 l 857 354 l 811 153 l 950 153 q 1022 167 994 153 q 1064 201 1051 182 q 1083 241 1079 222 q 1088 272 1088 259 m 1342 304 q 1308 166 1342 230 q 1215 61 1274 102 q 1114 13 1167 27 q 974 0 1060 0 l 532 0 l 669 596 l 476 596 q 455 514 466 558 q 438 448 444 471 q 398 312 419 371 q 355 210 377 254 q 265 86 318 140 q 152 10 212 32 q 99 -1 123 1 q 42 -5 76 -5 q -22 -2 10 -5 q -63 0 -56 0 l -17 195 l -9 195 q 0 193 -7 195 q 14 192 7 192 q 77 202 55 192 q 123 244 98 213 q 175 336 151 282 q 231 513 199 391 q 260 625 246 572 q 295 762 274 677 l 951 762 l 893 508 l 1067 508 q 1272 454 1203 508 q 1342 304 1342 400 "},"И":{"x_min":40,"x_max":1196.34375,"ha":1179,"o":"m 962 0 l 708 0 l 866 678 l 288 0 l 40 0 l 273 1010 l 529 1010 l 385 394 l 918 1010 l 1196 1010 l 962 0 "},"й":{"x_min":27,"x_max":977.28125,"ha":1004,"o":"m 801 0 l 564 0 l 670 459 l 229 0 l 27 0 l 203 762 l 439 762 l 344 351 l 750 762 l 977 762 l 801 0 m 927 1100 q 812 915 903 981 q 579 850 722 850 q 388 902 454 850 q 322 1046 322 954 q 323 1072 322 1060 q 327 1100 324 1085 l 515 1100 q 512 1073 513 1085 q 511 1050 511 1060 q 532 987 511 1008 q 601 966 553 966 q 693 1000 663 966 q 738 1100 724 1034 l 927 1100 "},"b":{"x_min":27,"x_max":927,"ha":971,"o":"m 927 518 q 893 316 927 414 q 801 146 859 219 q 661 28 741 72 q 484 -15 581 -15 q 370 -2 420 -15 q 280 37 319 10 l 261 0 l 27 0 l 270 1055 l 515 1055 l 429 682 q 555 755 495 728 q 687 783 614 783 q 866 712 805 783 q 927 518 927 642 m 669 472 q 641 569 669 536 q 544 603 613 603 q 473 590 508 603 q 400 557 439 577 l 312 175 q 362 159 335 165 q 422 154 388 154 q 602 243 535 154 q 669 472 669 332 "},"q":{"x_min":47,"x_max":944,"ha":971,"o":"m 657 583 q 606 601 638 593 q 550 609 574 609 q 440 581 485 609 q 365 511 395 553 q 319 412 336 469 q 303 292 303 354 q 330 194 303 229 q 431 160 358 160 q 501 174 464 160 q 571 210 538 189 l 657 583 m 944 762 l 704 -279 l 458 -279 l 541 74 q 478 35 511 56 q 420 4 444 14 q 355 -15 385 -10 q 289 -21 324 -21 q 113 50 179 -21 q 47 255 47 122 q 84 466 47 369 q 183 634 121 563 q 325 743 244 704 q 488 783 406 783 q 598 768 550 783 q 690 728 647 753 l 706 762 l 944 762 "},"Љ":{"x_min":-65,"x_max":1632,"ha":1698,"o":"m 1355 350 q 1348 388 1355 371 q 1327 419 1342 405 q 1282 441 1311 432 q 1209 450 1252 450 l 1050 450 l 989 185 l 1155 185 q 1249 199 1210 185 q 1310 236 1287 213 q 1344 288 1333 259 q 1355 350 1355 317 m 1632 388 q 1586 212 1632 295 q 1467 80 1540 130 q 1330 17 1401 34 q 1164 0 1259 0 l 686 0 l 875 818 l 597 818 q 568 710 579 752 q 540 609 557 669 q 466 372 501 463 q 398 222 431 281 q 332 125 364 161 q 263 62 299 88 q 162 9 214 26 q 53 -7 110 -7 q -17 -4 19 -7 q -65 0 -54 -1 l -12 225 l -3 225 q 10 223 3 224 q 27 222 17 222 q 76 227 46 222 q 124 247 106 232 q 224 390 187 298 q 310 665 261 483 q 349 820 328 731 q 395 1010 371 908 l 1180 1010 l 1093 634 l 1297 634 q 1546 571 1461 634 q 1632 388 1632 509 "},"р":{"x_min":-38,"x_max":926,"ha":971,"o":"m 926 518 q 891 314 926 413 q 798 144 857 215 q 659 27 737 69 q 485 -15 581 -15 q 373 -1 424 -15 q 281 37 322 12 l 207 -279 l -38 -279 l 203 762 l 449 762 l 430 682 q 558 756 499 730 q 687 783 616 783 q 864 712 802 783 q 926 518 926 642 m 607 251 q 652 351 636 293 q 668 475 668 408 q 641 570 668 537 q 544 603 614 603 q 474 590 508 603 q 401 557 440 577 l 312 174 q 363 160 334 165 q 422 155 392 155 q 531 181 484 155 q 607 251 578 207 "},"т":{"x_min":56,"x_max":825,"ha":743,"o":"m 786 596 l 543 596 l 406 0 l 161 0 l 298 596 l 56 596 l 93 762 l 825 762 l 786 596 "},"П":{"x_min":40,"x_max":1179.640625,"ha":1163,"o":"m 1179 1010 l 946 0 l 685 0 l 873 818 l 491 818 l 301 0 l 40 0 l 273 1010 l 1179 1010 "},"z":{"x_min":-34,"x_max":851,"ha":829,"o":"m 682 0 l -34 0 l 1 149 l 502 590 l 119 590 l 159 762 l 851 762 l 816 614 l 321 174 l 723 174 l 682 0 "},"™":{"x_min":183,"x_max":1296,"ha":1339,"o":"m 1296 519 l 1164 519 l 1164 902 l 1149 902 l 1029 634 l 937 634 l 815 907 l 798 907 l 798 519 l 673 519 l 673 1010 l 886 1010 l 985 769 l 1088 1010 l 1296 1010 l 1296 519 m 595 904 l 455 904 l 455 519 l 323 519 l 323 904 l 183 904 l 183 1010 l 595 1010 l 595 904 "},"Ж":{"x_min":-75,"x_max":1632,"ha":1549,"o":"m 1462 0 l 1179 0 l 989 417 l 914 417 l 817 0 l 556 0 l 652 417 l 580 417 l 231 0 l -75 0 l 387 534 q 355 589 368 552 q 335 665 342 626 q 301 759 325 726 q 222 792 277 792 l 156 792 l 206 1009 q 242 1010 218 1009 q 298 1012 267 1012 q 456 970 399 1012 q 532 842 512 929 q 545 783 538 816 q 559 724 553 750 q 603 617 578 645 q 691 589 629 589 l 789 1010 l 1051 1010 l 953 589 q 1045 615 1010 589 q 1140 725 1080 640 q 1179 784 1156 748 q 1217 842 1202 819 q 1351 973 1282 934 q 1525 1012 1421 1012 q 1589 1010 1560 1012 q 1632 1009 1619 1009 l 1582 795 l 1528 795 q 1480 787 1501 795 q 1437 763 1458 780 q 1400 721 1421 750 q 1359 662 1380 693 q 1283 565 1315 598 q 1214 519 1250 533 l 1462 0 "},"и":{"x_min":27,"x_max":977.28125,"ha":1004,"o":"m 801 0 l 564 0 l 670 459 l 229 0 l 27 0 l 203 762 l 439 762 l 344 351 l 750 762 l 977 762 l 801 0 "},"~":{"x_min":119,"x_max":1113,"ha":1205,"o":"m 1113 683 q 1038 341 1112 460 q 819 222 965 222 q 734 233 771 222 q 669 263 698 244 q 618 306 641 282 q 571 358 595 329 q 532 405 554 377 q 495 450 510 434 q 457 483 475 471 q 417 495 439 495 q 355 474 376 495 q 323 419 334 453 q 307 328 310 383 q 302 221 303 273 l 119 221 q 194 566 119 450 q 412 682 270 682 q 495 670 458 682 q 563 639 533 658 q 615 596 592 620 q 662 545 639 572 q 697 500 678 526 q 738 453 717 475 q 778 419 760 430 q 814 409 796 409 q 875 428 853 409 q 908 484 898 448 q 924 570 920 519 q 930 683 928 621 l 1113 683 "},"Н":{"x_min":40,"x_max":1180.578125,"ha":1163,"o":"m 1180 1010 l 946 0 l 685 0 l 788 446 l 405 446 l 301 0 l 40 0 l 273 1010 l 535 1010 l 449 638 l 832 638 l 918 1010 l 1180 1010 "},"ф":{"x_min":42,"x_max":1303,"ha":1342,"o":"m 1303 514 q 1265 297 1303 394 q 1165 132 1227 200 q 1025 27 1103 64 q 864 -10 947 -10 q 770 3 807 -10 q 712 29 732 16 l 640 -279 l 398 -279 l 469 28 q 403 2 446 15 q 303 -10 360 -10 q 111 60 181 -10 q 42 250 42 130 q 79 466 42 368 q 179 633 116 563 q 321 738 242 702 q 480 775 400 775 q 573 762 537 775 q 632 735 609 749 l 706 1055 l 949 1055 l 875 735 q 946 760 898 746 q 1041 775 993 775 q 1233 704 1164 775 q 1303 514 1303 634 m 1049 467 q 1013 571 1049 535 q 905 607 977 607 q 871 604 886 607 q 844 600 856 602 l 743 165 q 771 161 758 162 q 804 160 785 160 q 906 183 860 160 q 983 248 952 207 q 1031 345 1014 290 q 1049 467 1049 401 m 500 164 l 601 600 q 571 604 589 602 q 540 605 554 605 q 439 582 484 605 q 361 516 395 558 q 313 419 331 477 q 296 298 296 360 q 332 194 296 230 q 440 158 368 158 q 471 160 453 158 q 500 164 488 162 "},"₧":{"x_min":40,"x_max":1854,"ha":1866,"o":"m 1796 271 q 1694 68 1796 157 q 1414 -21 1593 -21 q 1255 0 1319 -21 q 1155 40 1191 21 l 1198 232 l 1212 232 q 1242 205 1224 220 q 1292 173 1260 190 q 1353 147 1319 158 q 1426 136 1388 136 q 1517 154 1485 136 q 1550 209 1550 172 q 1523 257 1550 237 q 1455 292 1497 276 q 1416 306 1439 297 q 1377 323 1393 316 q 1290 396 1319 348 q 1261 500 1261 443 q 1266 545 1261 523 q 1274 576 1271 567 l 1169 576 l 1035 0 l 800 0 l 934 576 l 834 576 q 775 503 807 534 q 695 447 743 472 q 597 410 650 423 q 479 397 543 397 l 376 397 l 284 0 l 40 0 l 273 1010 l 599 1010 q 823 952 748 1010 q 898 787 898 895 q 896 763 898 775 q 893 738 895 750 l 973 738 l 1007 884 l 1240 884 l 1206 738 l 1402 738 q 1503 768 1438 755 q 1621 782 1567 782 q 1752 766 1687 782 q 1854 731 1818 750 l 1811 545 l 1795 545 q 1715 603 1758 581 q 1623 625 1673 625 q 1534 605 1568 625 q 1500 548 1500 585 q 1522 504 1500 522 q 1583 472 1544 487 q 1627 455 1601 465 q 1663 441 1653 445 q 1765 368 1735 415 q 1796 271 1796 322 m 649 745 q 616 822 649 800 q 507 844 583 844 l 479 844 l 413 560 l 438 560 q 523 566 485 560 q 586 597 562 573 q 632 666 616 626 q 649 745 649 706 "},"л":{"x_min":-63,"x_max":957.734375,"ha":985,"o":"m 782 0 l 537 0 l 674 596 l 475 596 q 454 514 465 558 q 437 448 443 471 q 397 312 418 371 q 354 210 376 254 q 265 86 317 140 q 152 10 212 32 q 99 -1 123 1 q 42 -5 75 -5 q -23 -2 10 -5 q -63 0 -56 0 l -17 195 l -10 195 q 0 193 -7 195 q 14 192 7 192 q 76 202 55 192 q 122 244 98 213 q 174 336 150 282 q 230 513 198 391 q 259 625 245 572 q 294 762 273 677 l 957 762 l 782 0 "},"[":{"x_min":18,"x_max":776,"ha":755,"o":"m 471 -266 l 18 -266 l 323 1055 l 776 1055 l 738 892 l 498 892 l 268 -103 l 509 -103 l 471 -266 "},"Щ":{"x_min":40,"x_max":1632.984375,"ha":1635,"o":"m 1260 0 l 40 0 l 272 1010 l 533 1010 l 345 192 l 634 192 l 822 1010 l 1083 1010 l 895 192 l 1183 192 l 1372 1010 l 1632 1010 l 1444 193 l 1545 193 l 1446 -232 l 1206 -232 l 1260 0 "},"L":{"x_min":40,"x_max":814,"ha":885,"o":"m 768 0 l 40 0 l 273 1010 l 536 1010 l 347 195 l 814 195 l 768 0 "},"К":{"x_min":40,"x_max":1157,"ha":1071,"o":"m 994 0 l 707 0 l 480 409 l 396 409 l 301 0 l 40 0 l 272 1010 l 534 1010 l 439 596 q 535 620 500 598 q 641 731 569 642 q 683 785 659 753 q 729 844 708 817 q 809 930 770 895 q 883 982 848 964 q 958 1005 919 999 q 1055 1012 997 1012 q 1117 1010 1089 1012 q 1157 1009 1144 1009 l 1107 795 l 1039 795 q 989 788 1007 795 q 947 764 971 782 q 908 727 927 749 q 856 661 889 705 q 766 560 802 590 q 699 516 730 530 l 994 0 "}," ":{"x_min":0,"x_max":0,"ha":475},"∑":{"x_min":97,"x_max":946,"ha":970,"o":"m 946 -128 l 97 -128 l 97 60 l 455 431 l 104 817 l 104 1010 l 929 1010 l 929 815 l 426 815 l 749 460 l 749 402 l 419 67 l 946 67 l 946 -128 "},"%":{"x_min":144,"x_max":1667,"ha":1767,"o":"m 777 787 q 680 484 777 598 q 421 371 584 371 q 214 433 284 371 q 144 618 144 495 q 241 917 144 806 q 499 1029 338 1029 q 706 967 635 1029 q 777 787 777 905 m 578 773 q 555 856 578 828 q 485 885 532 885 q 383 811 424 885 q 343 627 343 738 q 365 543 343 571 q 435 515 388 515 q 539 591 500 515 q 578 773 578 668 m 1667 395 q 1570 92 1667 206 q 1311 -21 1474 -21 q 1104 41 1174 -21 q 1034 226 1034 103 q 1131 525 1034 414 q 1389 637 1228 637 q 1596 575 1525 637 q 1667 395 1667 513 m 1468 381 q 1445 464 1468 436 q 1375 493 1422 493 q 1273 419 1314 493 q 1233 235 1233 346 q 1255 151 1233 179 q 1325 123 1278 123 q 1429 199 1390 123 q 1468 381 1468 276 m 1352 1010 l 644 0 l 461 0 l 1168 1010 l 1352 1010 "},"P":{"x_min":40,"x_max":1044,"ha":1018,"o":"m 1044 730 q 894 439 1044 550 q 476 329 745 329 l 377 329 l 301 0 l 40 0 l 273 1010 l 636 1010 q 808 996 735 1010 q 935 949 882 982 q 1016 863 988 916 q 1044 730 1044 809 m 766 705 q 723 792 766 764 q 596 821 680 821 l 491 821 l 421 519 l 515 519 q 699 567 633 519 q 766 705 766 615 "},"∏":{"x_min":68,"x_max":1219,"ha":1207,"o":"m 1219 816 l 1061 816 l 1061 -131 l 801 -131 l 801 816 l 486 816 l 486 -131 l 226 -131 l 226 816 l 68 816 l 68 1010 l 1219 1010 l 1219 816 "},"_":{"x_min":-153,"x_max":889,"ha":988,"o":"m 889 -94 l 856 -238 l -153 -238 l -120 -94 l 889 -94 "},"+":{"x_min":163,"x_max":1072,"ha":1205,"o":"m 1072 358 l 710 358 l 710 0 l 524 0 l 524 358 l 163 358 l 163 540 l 524 540 l 524 898 l 710 898 l 710 540 l 1072 540 l 1072 358 "},"‚":{"x_min":-76,"x_max":375,"ha":461,"o":"m 375 267 l 85 -132 l -76 -132 l 122 267 l 375 267 "},"₣":{"x_min":21,"x_max":1033,"ha":988,"o":"m 989 818 l 543 818 l 502 642 l 921 642 l 877 450 l 457 450 l 428 321 l 666 321 l 633 177 l 394 177 l 353 0 l 99 0 l 139 177 l 21 177 l 53 321 l 173 321 l 332 1010 l 1033 1010 l 989 818 "},"ѓ":{"x_min":27,"x_max":868,"ha":738,"o":"m 780 596 l 410 596 l 272 0 l 27 0 l 203 762 l 819 762 l 780 596 m 868 1123 l 570 870 l 397 870 l 609 1137 l 868 1137 l 868 1123 "},"ы":{"x_min":27,"x_max":1275.921875,"ha":1302,"o":"m 584 272 q 559 332 584 310 q 479 354 534 354 l 353 354 l 307 153 l 446 153 q 518 167 489 153 q 560 201 547 182 q 579 241 575 222 q 584 272 584 259 m 838 304 q 804 166 838 230 q 711 61 770 102 q 609 13 663 27 q 470 0 556 0 l 27 0 l 203 762 l 448 762 l 389 508 l 563 508 q 768 454 699 508 q 838 304 838 400 m 1099 0 l 854 0 l 1030 762 l 1275 762 l 1099 0 "},"'":{"x_min":206,"x_max":492,"ha":461,"o":"m 492 1055 l 359 656 l 206 656 l 257 1055 l 492 1055 "},"ї":{"x_min":27,"x_max":641,"ha":475,"o":"m 448 762 l 272 0 l 27 0 l 203 762 l 448 762 m 641 1056 l 598 871 l 410 871 l 452 1056 l 641 1056 m 330 1056 l 287 871 l 99 871 l 141 1056 l 330 1056 "},"Р":{"x_min":40,"x_max":1044,"ha":1018,"o":"m 1044 730 q 894 439 1044 550 q 476 329 745 329 l 377 329 l 301 0 l 40 0 l 273 1010 l 636 1010 q 808 996 735 1010 q 935 949 882 982 q 1016 863 988 916 q 1044 730 1044 809 m 766 705 q 723 792 766 764 q 596 821 680 821 l 491 821 l 421 519 l 515 519 q 699 567 633 519 q 766 705 766 615 "},"щ":{"x_min":27,"x_max":1365.953125,"ha":1407,"o":"m 1050 0 l 27 0 l 203 762 l 448 762 l 310 164 l 524 164 l 662 762 l 906 762 l 769 164 l 983 164 l 1121 762 l 1365 762 l 1228 164 l 1307 164 l 1225 -189 l 1006 -189 l 1050 0 "},"T":{"x_min":129,"x_max":1065,"ha":947,"o":"m 1020 815 l 705 815 l 517 0 l 256 0 l 443 815 l 129 815 l 173 1010 l 1065 1010 l 1020 815 "},"Њ":{"x_min":40,"x_max":1621,"ha":1687,"o":"m 1344 350 q 1337 388 1344 371 q 1316 419 1331 405 q 1271 441 1300 432 q 1198 450 1241 450 l 1039 450 l 978 185 l 1144 185 q 1237 199 1199 185 q 1299 236 1276 213 q 1333 288 1322 259 q 1344 350 1344 317 m 1621 388 q 1575 212 1621 295 q 1456 80 1529 130 q 1319 17 1390 34 q 1153 0 1248 0 l 675 0 l 778 447 l 405 447 l 301 0 l 40 0 l 273 1010 l 535 1010 l 448 631 l 821 631 l 908 1010 l 1169 1010 l 1082 634 l 1286 634 q 1535 571 1450 634 q 1621 388 1621 509 "},"℮":{"x_min":85,"x_max":991,"ha":1039,"o":"m 959 393 l 344 393 q 342 371 343 383 q 341 350 341 358 q 402 210 341 256 q 584 165 463 165 q 683 177 633 165 q 769 204 734 189 q 840 237 808 220 q 892 268 872 255 l 923 268 l 880 53 q 703 -1 783 15 q 526 -18 623 -18 q 198 76 312 -18 q 85 337 85 171 q 244 742 85 584 q 648 901 403 901 q 902 818 814 901 q 991 595 991 736 q 987 544 991 578 q 978 479 984 511 l 959 393 m 730 546 q 735 573 733 560 q 737 602 737 586 q 702 701 737 664 q 593 738 667 738 q 457 691 515 738 q 374 546 399 644 l 730 546 "},"є":{"x_min":50,"x_max":850,"ha":842,"o":"m 710 34 q 568 -8 633 4 q 440 -21 503 -21 q 154 61 258 -21 q 50 293 50 144 q 88 491 50 401 q 197 645 127 580 q 365 746 265 709 q 579 783 464 783 q 719 768 647 783 q 850 725 790 753 l 807 535 l 773 535 q 680 599 737 573 q 552 625 623 625 q 412 586 474 625 q 319 468 351 547 l 667 468 l 633 317 l 284 317 q 284 304 284 310 q 284 293 284 298 q 330 176 284 216 q 461 136 376 136 q 600 160 537 136 q 719 228 664 184 l 753 228 l 710 34 "},"j":{"x_min":-190,"x_max":600,"ha":560,"o":"m 534 762 l 358 3 q 237 -207 327 -129 q 6 -286 147 -286 q -111 -280 -61 -286 q -190 -268 -162 -275 l -149 -94 l -130 -94 q -85 -106 -108 -102 q -34 -110 -62 -110 q 66 -75 29 -109 q 121 38 103 -42 l 250 596 l 105 596 l 143 762 l 534 762 m 600 1056 l 557 871 l 298 871 l 340 1056 l 600 1056 "},"1":{"x_min":93,"x_max":808,"ha":988,"o":"m 767 0 l 93 0 l 133 176 l 346 176 l 468 710 l 256 710 l 293 875 q 388 881 340 875 q 468 900 436 887 q 529 943 503 916 q 566 1013 554 970 l 791 1013 l 599 176 l 808 176 l 767 0 "},"›":{"x_min":132,"x_max":633,"ha":755,"o":"m 611 400 l 132 87 l 182 308 l 422 460 l 252 611 l 297 806 l 633 491 l 611 400 "},"ћ":{"x_min":27,"x_max":920,"ha":990,"o":"m 920 589 q 917 547 920 573 q 908 495 914 521 l 793 0 l 546 0 l 634 377 q 649 450 643 421 q 654 504 654 480 q 631 569 654 549 q 549 590 609 590 q 482 577 520 590 q 397 539 444 564 l 272 0 l 27 0 l 221 841 l 133 841 l 164 977 l 252 977 l 270 1055 l 516 1055 l 498 977 l 718 977 l 686 841 l 466 841 l 429 677 q 566 755 504 727 q 703 783 629 783 q 863 732 807 783 q 920 589 920 681 "},"ℓ":{"x_min":10,"x_max":535,"ha":575,"o":"m 10 308 l 130 438 l 130 733 q 194 931 130 852 q 369 1010 258 1010 q 492 965 450 1010 q 535 848 535 921 q 490 705 535 785 q 325 485 445 624 l 325 169 q 339 104 325 118 q 371 91 353 91 q 414 99 388 91 q 509 158 441 108 l 509 42 q 427 -1 471 13 q 344 -16 383 -16 q 177 32 225 -16 q 130 167 130 80 l 130 282 l 81 232 l 10 308 m 325 640 q 408 774 393 738 q 424 847 424 809 q 420 877 424 867 q 410 897 417 888 q 395 910 404 905 q 376 916 386 916 q 356 908 365 916 q 341 891 346 901 q 329 839 333 877 q 325 742 325 801 l 325 640 "},"Т":{"x_min":129,"x_max":1065,"ha":947,"o":"m 1020 815 l 705 815 l 517 0 l 256 0 l 443 815 l 129 815 l 173 1010 l 1065 1010 l 1020 815 "},"<":{"x_min":153,"x_max":1059,"ha":1205,"o":"m 1059 -5 l 153 371 l 153 525 l 1059 902 l 1059 707 l 426 447 l 1059 189 l 1059 -5 "},"Ц":{"x_min":40,"x_max":1176.71875,"ha":1180,"o":"m 803 0 l 40 0 l 273 1010 l 535 1010 l 346 192 l 726 192 l 915 1010 l 1176 1010 l 988 192 l 1088 192 l 990 -232 l 750 -232 l 803 0 "},"t":{"x_min":78.578125,"x_max":691,"ha":633,"o":"m 319 -15 q 138 26 192 -15 q 84 150 84 68 q 87 192 84 172 q 96 240 90 212 l 179 601 l 78 601 l 116 762 l 216 762 l 267 980 l 512 980 l 462 762 l 691 762 l 653 601 l 425 601 l 361 326 q 348 268 354 297 q 341 219 341 239 q 364 162 341 178 q 435 147 387 147 q 485 154 454 147 q 534 170 516 161 l 555 170 l 516 6 q 429 -9 475 -3 q 319 -15 383 -15 "},"W":{"x_min":190,"x_max":1667,"ha":1567,"o":"m 1667 1010 l 1176 0 l 897 0 l 854 667 l 526 0 l 236 0 l 190 1010 l 462 1010 l 464 315 l 803 1010 l 1063 1010 l 1093 317 l 1401 1010 l 1667 1010 "},"а":{"x_min":13,"x_max":860,"ha":928,"o":"m 572 359 q 449 346 507 353 q 352 324 392 338 q 288 282 310 309 q 267 210 267 255 q 296 155 267 171 q 380 140 325 140 q 457 156 416 140 q 535 198 499 173 l 572 359 m 507 80 q 452 44 484 65 q 391 11 419 23 q 320 -12 353 -4 q 228 -21 287 -21 q 73 32 133 -21 q 13 171 13 85 q 55 323 13 261 q 182 424 98 386 q 369 474 260 459 q 605 498 478 490 q 608 511 605 502 q 610 532 610 520 q 565 599 610 580 q 432 619 520 619 q 298 598 371 619 q 189 565 225 578 l 167 565 l 202 745 q 335 769 245 755 q 513 783 424 783 q 776 736 692 783 q 860 591 860 689 q 857 555 860 577 q 851 517 855 534 l 731 0 l 489 0 l 507 80 "},"Ф":{"x_min":81,"x_max":1300,"ha":1323,"o":"m 1300 586 q 1259 389 1300 476 q 1143 241 1218 302 q 963 144 1067 179 q 725 101 858 108 l 699 -10 l 441 -10 l 467 102 q 307 135 378 110 q 184 202 235 160 q 108 301 135 243 q 81 431 81 360 q 121 626 81 539 q 237 776 161 713 q 420 874 312 839 q 654 917 527 909 l 678 1021 l 937 1021 l 913 915 q 1196 816 1092 899 q 1300 586 1300 733 m 617 752 q 419 655 487 736 q 352 448 352 574 q 387 329 352 377 q 504 266 422 281 l 617 752 m 1029 569 q 994 686 1029 639 q 876 751 959 734 l 763 266 q 960 361 892 281 q 1029 569 1029 441 "},">":{"x_min":175,"x_max":1081,"ha":1205,"o":"m 1081 371 l 175 -5 l 175 189 l 808 448 l 175 707 l 175 902 l 1081 525 l 1081 371 "},"v":{"x_min":99,"x_max":962,"ha":901,"o":"m 962 762 l 492 0 l 214 0 l 99 762 l 350 762 l 405 237 l 699 762 l 962 762 "},"Ї":{"x_min":-5.1875,"x_max":869,"ha":758,"o":"m 586 0 l -5 0 l 36 179 l 201 179 l 351 831 l 186 831 l 228 1010 l 819 1010 l 778 831 l 613 831 l 462 179 l 627 179 l 586 0 m 869 1308 l 826 1123 l 625 1123 l 667 1308 l 869 1308 m 505 1308 l 462 1123 l 261 1123 l 303 1308 l 505 1308 "},"О":{"x_min":80,"x_max":1158,"ha":1181,"o":"m 1158 634 q 1115 390 1158 510 q 993 180 1073 269 q 789 30 906 82 q 520 -21 672 -21 q 197 85 314 -21 q 80 379 80 192 q 124 630 80 511 q 253 839 169 748 q 454 978 334 926 q 716 1031 574 1031 q 1040 923 923 1031 q 1158 634 1158 816 m 785 289 q 857 429 831 350 q 884 613 884 509 q 832 782 884 721 q 683 844 780 844 q 563 815 620 844 q 457 727 506 786 q 382 587 411 671 q 354 399 354 503 q 407 224 354 283 q 554 166 460 166 q 680 198 620 166 q 785 289 740 230 "},"&":{"x_min":54,"x_max":1143.71875,"ha":1198,"o":"m 1141 0 l 817 0 l 741 85 q 564 2 650 25 q 410 -21 479 -21 q 150 49 246 -21 q 54 240 54 120 q 73 347 54 298 q 126 437 92 397 q 207 508 159 477 q 308 566 254 539 q 234 657 256 612 q 212 752 212 701 q 237 859 212 809 q 313 948 263 910 q 438 1008 362 986 q 607 1031 514 1031 q 844 979 758 1031 q 931 838 931 928 q 914 755 931 798 q 863 677 897 712 q 774 609 828 640 q 640 553 719 577 l 809 371 l 856 590 l 1109 590 l 1092 514 q 1033 361 1074 431 q 932 239 992 291 l 1143 13 l 1141 0 m 671 805 q 649 865 671 843 q 584 888 628 888 q 502 860 535 888 q 470 782 470 832 q 494 713 470 750 q 560 638 518 676 q 640 716 609 671 q 671 805 671 760 m 646 199 l 411 457 q 351 387 371 424 q 331 308 331 350 q 373 196 331 239 q 496 153 415 153 q 571 163 537 153 q 646 199 606 173 "},"‛":{"x_min":84,"x_max":532,"ha":461,"o":"m 532 1055 l 333 656 l 84 656 l 373 1055 l 532 1055 "},"I":{"x_min":-5.1875,"x_max":819.609375,"ha":758,"o":"m 586 0 l -5 0 l 36 179 l 201 179 l 351 831 l 186 831 l 228 1010 l 819 1010 l 778 831 l 613 831 l 462 179 l 627 179 l 586 0 "},"G":{"x_min":80,"x_max":1141,"ha":1127,"o":"m 538 -21 q 201 80 323 -21 q 80 369 80 182 q 267 845 80 661 q 744 1030 455 1030 q 947 1011 854 1030 q 1141 940 1040 992 l 1083 704 l 1054 704 q 900 810 972 780 q 740 841 827 841 q 579 804 651 841 q 456 706 507 768 q 381 568 408 648 q 354 401 354 488 q 420 223 354 280 q 637 166 487 166 q 670 166 652 166 q 703 168 688 167 l 748 365 l 547 365 l 591 556 l 1057 556 l 942 57 q 749 2 851 26 q 538 -21 647 -21 "},"`":{"x_min":375,"x_max":722,"ha":988,"o":"m 722 870 l 568 870 l 375 1123 l 375 1137 l 606 1137 l 722 870 "},"Х":{"x_min":-72,"x_max":1184,"ha":1061,"o":"m 413 519 l 169 1010 l 452 1010 l 601 693 l 896 1010 l 1184 1010 l 707 506 l 956 0 l 672 0 l 520 335 l 215 0 l -72 0 l 413 519 "},"r":{"x_min":27,"x_max":756,"ha":690,"o":"m 701 529 l 680 529 q 634 537 663 534 q 575 540 604 540 q 482 532 527 540 q 390 510 438 525 l 272 0 l 27 0 l 203 762 l 448 762 l 423 650 q 560 732 492 700 q 699 764 629 764 q 727 763 712 764 q 756 761 743 762 l 701 529 "},"₤":{"x_min":16,"x_max":997,"ha":988,"o":"m 811 0 l 16 0 l 58 181 q 172 235 133 199 q 230 326 211 270 l 112 326 l 137 440 l 262 440 l 283 536 l 160 536 l 185 650 l 307 650 l 325 726 q 468 951 360 873 q 751 1030 576 1030 q 903 1018 844 1030 q 997 997 963 1007 l 950 790 l 919 790 q 858 825 902 802 q 750 848 814 848 q 624 807 668 848 q 559 686 579 767 l 550 650 l 848 650 l 822 536 l 524 536 l 502 440 l 800 440 l 774 326 l 465 326 q 410 248 446 283 q 328 194 373 213 l 327 187 l 854 187 l 811 0 "},"ж":{"x_min":-56,"x_max":1411,"ha":1388,"o":"m 1279 0 l 1021 0 l 872 304 l 798 304 l 728 0 l 484 0 l 554 304 l 486 304 l 227 0 l -56 0 l 298 400 q 275 435 283 413 q 262 476 266 456 q 255 506 259 492 q 239 535 252 520 q 213 557 229 549 q 171 566 197 566 l 103 566 l 148 761 q 183 762 160 761 q 234 763 206 763 q 357 734 309 763 q 430 632 405 706 q 443 590 436 615 q 458 544 451 565 q 500 470 477 487 q 587 454 524 454 l 659 762 l 903 762 l 831 454 q 917 470 895 454 q 988 548 939 486 q 1020 591 1001 565 q 1054 636 1039 617 q 1158 731 1103 699 q 1310 763 1213 763 q 1368 762 1337 763 q 1411 761 1400 761 l 1366 566 l 1303 566 q 1257 558 1275 566 q 1223 536 1239 550 q 1197 507 1210 525 q 1176 477 1185 489 q 1127 417 1150 438 q 1081 384 1105 395 l 1279 0 "},"x":{"x_min":-71,"x_max":996,"ha":929,"o":"m 324 386 l 110 762 l 373 762 l 494 530 l 714 762 l 996 762 l 605 380 l 823 0 l 559 0 l 436 233 l 210 0 l -71 0 l 324 386 "},"Ђ":{"x_min":128,"x_max":1194,"ha":1265,"o":"m 1194 388 q 1148 212 1194 295 q 1029 80 1102 130 q 892 17 963 34 q 726 0 821 0 l 647 0 l 690 192 l 719 192 q 813 205 774 192 q 874 240 852 218 q 906 290 896 262 q 917 350 917 318 q 910 388 917 371 q 889 419 904 405 q 844 441 873 433 q 771 450 815 450 l 598 450 l 494 0 l 233 0 l 421 815 l 128 815 l 172 1010 l 1042 1010 l 997 815 l 682 815 l 641 634 l 859 634 q 1108 571 1023 634 q 1194 388 1194 509 "},"∞":{"x_min":135,"x_max":1365,"ha":1470,"o":"m 1365 449 q 1338 280 1365 353 q 1267 160 1311 206 q 1160 88 1219 111 q 1028 65 1101 65 q 867 110 941 65 q 742 246 794 156 q 615 108 685 152 q 447 65 544 65 q 220 168 306 65 q 135 435 135 272 q 227 717 135 615 q 471 820 320 820 q 633 774 560 820 q 758 638 705 729 q 885 775 813 730 q 1052 820 957 820 q 1279 716 1193 820 q 1365 449 1365 612 m 1189 449 q 1152 581 1189 534 q 1052 629 1115 629 q 974 612 1006 629 q 916 561 943 596 q 865 481 888 524 q 822 391 842 437 q 911 290 859 325 q 1020 256 964 256 q 1144 306 1100 256 q 1189 449 1189 356 m 677 493 q 587 594 639 560 q 479 629 535 629 q 354 577 398 629 q 311 435 311 525 q 345 306 311 356 q 447 256 380 256 q 549 287 513 256 q 618 375 584 318 q 650 432 639 409 q 677 493 661 455 "},"с":{"x_min":50,"x_max":850,"ha":817,"o":"m 420 -21 q 274 -1 342 -21 q 155 58 206 17 q 77 158 105 98 q 50 298 50 219 q 89 489 50 401 q 198 643 128 577 q 367 745 267 707 q 583 783 467 783 q 722 767 653 783 q 850 722 790 751 l 798 514 l 763 514 q 673 585 723 562 q 559 609 622 609 q 373 526 443 609 q 304 322 304 444 q 347 195 304 237 q 481 153 390 153 q 609 181 551 153 q 709 246 667 210 l 744 246 l 692 37 q 563 -7 619 6 q 420 -21 508 -21 "},"h":{"x_min":27,"x_max":920,"ha":990,"o":"m 920 589 q 917 547 920 573 q 908 495 914 521 l 793 0 l 546 0 l 634 377 q 649 450 643 421 q 654 504 654 480 q 631 569 654 549 q 549 590 609 590 q 482 577 520 590 q 397 539 444 564 l 272 0 l 27 0 l 270 1055 l 516 1055 l 429 677 q 566 755 504 727 q 703 783 629 783 q 863 732 807 783 q 920 589 920 681 "},"я":{"x_min":-56,"x_max":920.5625,"ha":947,"o":"m 744 0 l 500 0 l 561 267 l 453 267 l 226 0 l -56 0 l 214 307 q 137 377 167 334 q 107 483 107 421 q 143 616 107 557 q 247 713 180 675 q 345 750 290 738 q 459 762 401 762 l 920 762 l 744 0 m 595 413 l 639 605 l 494 605 q 399 576 435 605 q 363 491 363 547 q 387 433 363 453 q 458 413 411 413 l 595 413 "},".":{"x_min":36,"x_max":351,"ha":502,"o":"m 290 0 l 36 0 l 96 267 l 351 267 l 290 0 "},"Ё":{"x_min":40,"x_max":1005,"ha":949,"o":"m 1005 1010 l 960 818 l 489 818 l 447 638 l 885 638 l 840 446 l 402 446 l 344 192 l 815 192 l 771 0 l 40 0 l 273 1010 l 1005 1010 m 968 1308 l 925 1123 l 724 1123 l 766 1308 l 968 1308 m 604 1308 l 561 1123 l 360 1123 l 402 1308 l 604 1308 "},";":{"x_min":-94,"x_max":494,"ha":559,"o":"m 433 495 l 179 495 l 239 762 l 494 762 l 433 495 m 422 267 l 57 -250 l -94 -250 l 157 267 l 422 267 "},"f":{"x_min":45,"x_max":765,"ha":587,"o":"m 458 762 l 647 762 l 610 601 l 429 601 l 290 0 l 45 0 l 184 601 l 80 601 l 116 762 l 221 762 l 225 781 q 340 990 257 919 q 585 1062 423 1062 q 689 1058 644 1062 q 765 1048 733 1054 l 724 876 l 706 876 q 661 887 690 881 q 608 893 632 893 q 509 866 540 893 q 459 767 478 840 l 458 762 "},"“":{"x_min":134,"x_max":764,"ha":816,"o":"m 764 656 l 608 656 l 503 1055 l 749 1055 l 764 656 m 395 656 l 239 656 l 134 1055 l 380 1055 l 395 656 "},"Г":{"x_min":40,"x_max":1002,"ha":885,"o":"m 956 815 l 490 815 l 301 0 l 40 0 l 273 1010 l 1002 1010 l 956 815 "},"A":{"x_min":-63,"x_max":984,"ha":1078,"o":"m 984 0 l 721 0 l 698 206 l 327 206 l 209 0 l -63 0 l 542 1010 l 844 1010 l 984 0 m 678 387 l 638 748 l 430 387 l 678 387 "},"6":{"x_min":90,"x_max":943,"ha":988,"o":"m 464 -21 q 312 -1 381 -21 q 193 61 243 18 q 117 170 144 103 q 90 332 90 237 q 134 612 90 485 q 261 832 178 738 q 463 976 342 923 q 728 1029 584 1029 q 850 1019 782 1029 q 943 1004 918 1010 l 908 807 l 882 808 q 819 831 866 817 q 712 845 772 845 q 515 787 596 845 q 390 610 433 730 q 502 654 442 636 q 627 672 563 672 q 840 601 762 672 q 919 405 919 531 q 789 100 919 221 q 464 -21 660 -21 m 651 365 q 608 467 651 435 q 487 500 566 500 q 419 492 452 500 q 366 479 387 485 q 352 410 358 451 q 347 335 347 369 q 378 196 347 241 q 483 151 409 151 q 601 211 552 151 q 651 365 651 271 "},"‘":{"x_min":123,"x_max":384,"ha":461,"o":"m 384 656 l 228 656 l 123 1055 l 369 1055 l 384 656 "},"Ь":{"x_min":40,"x_max":987,"ha":1053,"o":"m 710 350 q 703 388 710 371 q 682 419 697 405 q 637 441 666 432 q 564 450 607 450 l 405 450 l 343 185 l 510 185 q 603 199 564 185 q 665 236 642 213 q 699 288 688 259 q 710 350 710 317 m 987 388 q 941 212 987 295 q 822 80 895 130 q 685 17 756 34 q 518 0 613 0 l 40 0 l 273 1010 l 534 1010 l 447 634 l 651 634 q 901 571 816 634 q 987 388 987 509 "},"O":{"x_min":80,"x_max":1158,"ha":1181,"o":"m 1158 634 q 1115 390 1158 510 q 993 180 1073 269 q 789 30 906 82 q 520 -21 672 -21 q 197 85 314 -21 q 80 379 80 192 q 124 630 80 511 q 253 839 169 748 q 454 978 334 926 q 716 1031 574 1031 q 1040 923 923 1031 q 1158 634 1158 816 m 785 289 q 857 429 831 350 q 884 613 884 509 q 832 782 884 721 q 683 844 780 844 q 563 815 620 844 q 457 727 506 786 q 382 587 411 671 q 354 399 354 503 q 407 224 354 283 q 554 166 460 166 q 680 198 620 166 q 785 289 740 230 "},"n":{"x_min":27,"x_max":920,"ha":990,"o":"m 920 589 q 917 545 920 569 q 908 495 914 521 l 793 0 l 547 0 l 634 377 q 649 449 644 419 q 654 505 654 479 q 632 569 654 549 q 550 590 609 590 q 482 577 520 590 q 396 539 444 564 l 272 0 l 27 0 l 203 762 l 448 762 l 429 677 q 566 755 504 727 q 703 783 628 783 q 863 733 806 783 q 920 589 920 683 "},"3":{"x_min":23,"x_max":957,"ha":988,"o":"m 742 76 q 590 3 675 28 q 399 -21 504 -21 q 180 1 276 -21 q 23 55 84 24 l 70 275 l 96 274 q 235 204 158 230 q 386 178 312 178 q 557 218 496 178 q 619 335 619 259 q 607 387 619 367 q 568 419 595 408 q 496 436 540 432 q 398 440 453 440 l 343 440 l 381 619 l 439 619 q 634 649 579 619 q 690 740 690 679 q 643 812 690 789 q 514 835 596 835 q 366 812 444 835 q 228 760 289 790 l 203 761 l 249 978 q 400 1015 310 999 q 576 1031 490 1031 q 731 1017 663 1031 q 849 978 800 1004 q 928 907 900 950 q 957 800 957 864 q 935 691 957 738 q 878 613 914 644 q 798 563 843 583 q 711 534 754 543 l 709 524 q 833 465 783 512 q 883 344 883 418 q 844 191 883 260 q 742 76 806 122 "},"9":{"x_min":88,"x_max":941,"ha":988,"o":"m 941 676 q 896 397 941 528 q 769 176 851 267 q 569 31 685 83 q 302 -20 453 -20 q 177 -10 244 -20 q 88 4 111 -1 l 122 202 l 148 200 q 208 177 164 191 q 318 164 252 164 q 519 224 437 164 q 640 399 600 284 q 528 353 578 369 q 403 338 478 338 q 189 409 266 338 q 112 604 112 480 q 244 911 112 791 q 566 1031 377 1031 q 717 1011 648 1031 q 837 948 786 992 q 914 836 888 904 q 941 676 941 769 m 684 674 q 652 813 684 768 q 547 859 621 859 q 429 798 478 859 q 380 644 380 738 q 422 542 380 574 q 543 510 464 510 q 607 516 574 510 q 665 530 639 522 q 678 598 673 563 q 684 674 684 634 "},"l":{"x_min":27,"x_max":516.296875,"ha":475,"o":"m 516 1055 l 272 0 l 27 0 l 270 1055 l 516 1055 "},"∂":{"x_min":71,"x_max":928,"ha":988,"o":"m 830 949 q 903 840 878 906 q 928 675 928 774 q 896 435 928 560 q 799 210 864 311 q 620 34 719 90 q 403 -21 520 -21 q 275 -2 335 -21 q 169 52 214 15 q 97 143 123 88 q 71 271 71 198 q 179 552 71 434 q 447 670 287 670 q 568 646 509 670 q 668 581 627 623 q 674 621 671 595 q 678 672 678 648 q 630 806 678 764 q 490 849 583 849 q 379 831 431 849 q 266 786 326 813 l 248 787 l 271 980 q 415 1018 335 1005 q 558 1031 495 1031 q 715 1011 648 1031 q 830 949 781 992 m 642 435 q 582 480 614 464 q 509 496 551 496 q 374 432 422 496 q 327 277 327 368 q 357 182 327 212 q 436 153 388 153 q 558 224 503 153 q 642 435 613 295 "},"4":{"x_min":23,"x_max":942,"ha":988,"o":"m 899 232 l 761 232 l 707 -3 l 458 -3 l 512 232 l 23 232 l 67 422 l 675 1010 l 941 1010 l 804 416 l 942 416 l 899 232 m 554 416 l 638 775 l 267 416 l 554 416 "},"p":{"x_min":-38,"x_max":926,"ha":971,"o":"m 926 518 q 891 314 926 413 q 798 144 857 215 q 659 27 737 69 q 485 -15 581 -15 q 373 -1 424 -15 q 281 37 322 12 l 207 -279 l -38 -279 l 203 762 l 449 762 l 430 682 q 558 756 499 730 q 687 783 616 783 q 864 712 802 783 q 926 518 926 642 m 607 251 q 652 351 636 293 q 668 475 668 408 q 641 570 668 537 q 544 603 614 603 q 474 590 508 603 q 401 557 440 577 l 312 174 q 363 160 334 165 q 422 155 392 155 q 531 181 484 155 q 607 251 578 207 "},"Ъ":{"x_min":128,"x_max":1194,"ha":1260,"o":"m 917 350 q 910 388 917 371 q 889 419 904 405 q 844 441 873 432 q 771 450 814 450 l 612 450 l 551 185 l 717 185 q 811 199 772 185 q 872 236 849 213 q 906 288 895 259 q 917 350 917 317 m 1194 388 q 1148 212 1194 295 q 1029 80 1102 130 q 892 17 963 34 q 726 0 821 0 l 248 0 l 436 815 l 128 815 l 172 1010 l 742 1010 l 655 634 l 859 634 q 1108 571 1023 634 q 1194 388 1194 509 "},"‡":{"x_min":149,"x_max":914,"ha":988,"o":"m 808 346 l 561 349 l 505 92 l 333 92 l 395 349 l 149 346 l 184 502 l 431 498 l 467 654 l 219 651 l 254 807 l 500 803 l 555 1055 l 727 1055 l 667 803 l 914 807 l 878 651 l 631 654 l 595 498 l 844 502 l 808 346 "},"√":{"x_min":93,"x_max":1462,"ha":1205,"o":"m 1462 1247 l 625 -143 l 496 -143 l 265 521 l 93 521 l 126 665 l 452 665 l 625 148 l 1288 1247 l 1462 1247 "},"Ю":{"x_min":40,"x_max":1637,"ha":1660,"o":"m 1268 289 q 1337 430 1312 350 q 1363 613 1363 509 q 1348 719 1363 675 q 1306 790 1333 762 q 1246 830 1281 817 q 1171 844 1211 844 q 1056 814 1111 844 q 955 727 1001 785 q 885 586 911 670 q 859 399 859 503 q 874 291 859 336 q 915 218 889 246 q 975 178 940 191 q 1050 166 1010 166 q 1169 198 1112 166 q 1268 289 1227 231 m 592 446 l 405 446 l 301 0 l 40 0 l 273 1010 l 535 1010 l 449 638 l 634 638 q 720 797 667 725 q 847 921 774 868 q 1011 1001 919 972 q 1207 1031 1104 1031 q 1522 923 1407 1031 q 1637 634 1637 816 q 1596 389 1637 508 q 1476 180 1555 270 q 1282 33 1397 88 q 1017 -21 1166 -21 q 703 87 817 -21 q 590 383 590 195 q 590 414 590 401 q 592 446 591 427 "}}}
